<svg xmlns="http://www.w3.org/2000/svg" xmlns:xlink="http://www.w3.org/1999/xlink" xmlns:lucid="lucid" width="1417" height="530"><g transform="translate(-41 -789)" lucid:page-tab-id="0_0"><path d="M200 980h130.33v31.6H200z" fill="#a3d977"/><path d="M330.33 980h130.34v31.6H330.33zM460.67 980H591v31.6H460.67zM591 980h130.33v31.6H591z" fill="#a3d977"/><path d="M721.33 980h130.34v31.6H721.33z" fill="#fff"/><path d="M851.67 980H982v31.6H851.67zM982 980h130.33v31.6H982zM1112.33 980h149v31.6h-149z" fill="#fff"/><path d="M200 1011.6h130.33v31.6H200z" fill="#a3d977"/><path d="M330.33 1011.6h130.34v31.6H330.33zM460.67 1011.6H591v31.6H460.67zM591 1011.6h130.33v31.6H591z" fill="#a3d977"/><path d="M721.33 1011.6h130.34v31.6H721.33z" fill="#fff"/><path d="M851.67 1011.6H982v31.6H851.67zM982 1011.6h130.33v31.6H982zM1112.33 1011.6h149v31.6h-149z" fill="#fff"/><path d="M200 1043.2h130.33v31.6H200z" fill="#a3d977"/><path d="M330.33 1043.2h130.34v31.6H330.33zM460.67 1043.2H591v31.6H460.67zM591 1043.2h130.33v31.6H591z" fill="#a3d977"/><path d="M721.33 1043.2h130.34v31.6H721.33z" fill="#fff"/><path d="M851.67 1043.2H982v31.6H851.67zM982 1043.2h130.33v31.6H982zM1112.33 1043.2h149v31.6h-149z" fill="#fff"/><path d="M200 1074.8h130.33v31.6H200z" fill="#a3d977"/><path d="M330.33 1074.8h130.34v31.6H330.33zM460.67 1074.8H591v31.6H460.67zM591 1074.8h130.33v31.6H591z" fill="#a3d977"/><path d="M721.33 1074.8h130.34v31.6H721.33z" fill="#fff"/><path d="M851.67 1074.8H982v31.6H851.67zM982 1074.8h130.33v31.6H982zM1112.33 1074.8h149v31.6h-149z" fill="#fff"/><path d="M200 1106.4h130.33v31.6H200z" fill="#a3d977"/><path d="M330.33 1106.4h130.34v31.6H330.33zM460.67 1106.4H591v31.6H460.67zM591 1106.4h130.33v31.6H591z" fill="#a3d977"/><path d="M721.33 1106.4h130.34v31.6H721.33z" fill="#fff"/><path d="M851.67 1106.4H982v31.6H851.67zM982 1106.4h130.33v31.6H982zM1112.33 1106.4h149v31.6h-149z" fill="#fff"/><path d="M200 1138h130.33v31.6H200z" fill="#a3d977"/><path d="M330.33 1138h130.34v31.6H330.33zM460.67 1138H591v31.6H460.67zM591 1138h130.33v31.6H591z" fill="#a3d977"/><path d="M721.33 1138h130.34v31.6H721.33z" fill="#fff"/><path d="M851.67 1138H982v31.6H851.67zM982 1138h130.33v31.6H982zM1112.33 1138h149v31.6h-149z" fill="#fff"/><path d="M200 1169.6h130.33v31.6H200z" fill="#a3d977"/><path d="M330.33 1169.6h130.34v31.6H330.33zM460.67 1169.6H591v31.6H460.67zM591 1169.6h130.33v31.6H591z" fill="#a3d977"/><path d="M721.33 1169.6h130.34v31.6H721.33z" fill="#fff"/><path d="M851.67 1169.6H982v31.6H851.67zM982 1169.6h130.33v31.6H982zM1112.33 1169.6h149v31.6h-149z" fill="#fff"/><path d="M200 980v31.6M330.33 980v31.6M460.67 980v31.6M591 980v31.6M721.33 980v31.6M851.67 980v31.6M982 980v31.6M1112.33 980v31.6M1261.33 980v31.6M200 1011.6v31.6M330.33 1011.6v31.6M460.67 1011.6v31.6M591 1011.6v31.6M721.33 1011.6v31.6M851.67 1011.6v31.6M982 1011.6v31.6M1112.33 1011.6v31.6M1261.33 1011.6v31.6M200 1043.2v31.6M330.33 1043.2v31.6M460.67 1043.2v31.6M591 1043.2v31.6M721.33 1043.2v31.6M851.67 1043.2v31.6M982 1043.2v31.6M1112.33 1043.2v31.6M1261.33 1043.2v31.6M200 1074.8v31.6M330.33 1074.8v31.6M460.67 1074.8v31.6M591 1074.8v31.6M721.33 1074.8v31.6M851.67 1074.8v31.6M982 1074.8v31.6M1112.33 1074.8v31.6M1261.33 1074.8v31.6M200 1106.4v31.6M330.33 1106.4v31.6M460.67 1106.4v31.6M591 1106.4v31.6M721.33 1106.4v31.6M851.67 1106.4v31.6M982 1106.4v31.6M1112.33 1106.4v31.6M1261.33 1106.4v31.6M200 1138v31.6M330.33 1138v31.6M460.67 1138v31.6M591 1138v31.6M721.33 1138v31.6M851.67 1138v31.6M982 1138v31.6M1112.33 1138v31.6M1261.33 1138v31.6M200 1169.6v31.6M330.33 1169.6v31.6M460.67 1169.6v31.6M591 1169.6v31.6M721.33 1169.6v31.6M851.67 1169.6v31.6M982 1169.6v31.6M1112.33 1169.6v31.6M1261.33 1169.6v31.6M200 980h130.33M330.33 980h130.34M460.67 980H591M591 980h130.33M721.33 980h130.34M851.67 980H982M982 980h130.33M1112.33 980h149M200 1011.6h130.33M330.33 1011.6h130.34M460.67 1011.6H591M591 1011.6h130.33M721.33 1011.6h130.34M851.67 1011.6H982M982 1011.6h130.33M1112.33 1011.6h149M200 1043.2h130.33M330.33 1043.2h130.34M460.67 1043.2H591M591 1043.2h130.33M721.33 1043.2h130.34M851.67 1043.2H982M982 1043.2h130.33M1112.33 1043.2h149M200 1074.8h130.33M330.33 1074.8h130.34M460.67 1074.8H591M591 1074.8h130.33M721.33 1074.8h130.34M851.67 1074.8H982M982 1074.8h130.33M1112.33 1074.8h149M200 1106.4h130.33M330.33 1106.4h130.34M460.67 1106.4H591M591 1106.4h130.33M721.33 1106.4h130.34M851.67 1106.4H982M982 1106.4h130.33M1112.33 1106.4h149M200 1138h130.33M330.33 1138h130.34M460.67 1138H591M591 1138h130.33M721.33 1138h130.34M851.67 1138H982M982 1138h130.33M1112.33 1138h149M200 1169.6h130.33M200 1201.2h130.33M330.33 1169.6h130.34M330.33 1201.2h130.34M460.67 1169.6H591M460.67 1201.2H591M591 1169.6h130.33M591 1201.2h130.33M721.33 1169.6h130.34M721.33 1201.2h130.34M851.67 1169.6H982M851.67 1201.2H982M982 1169.6h130.33M982 1201.2h130.33M1112.33 1169.6h149M1112.33 1201.2h149" stroke="#000" stroke-width="2" fill="none"/><use xlink:href="#a" transform="matrix(1,0,0,1,205,985) translate(46 14.6)"/><use xlink:href="#a" transform="matrix(1,0,0,1,335.33333333333337,985) translate(46 14.6)"/><use xlink:href="#a" transform="matrix(1,0,0,1,465.6666666666667,985) translate(46 14.6)"/><use xlink:href="#a" transform="matrix(1,0,0,1,596,985) translate(46 14.6)"/><use xlink:href="#a" transform="matrix(1,0,0,1,726.3333333333334,985) translate(46 14.6)"/><use xlink:href="#a" transform="matrix(1,0,0,1,856.6666666666667,985) translate(46 14.6)"/><use xlink:href="#a" transform="matrix(1,0,0,1,987,985) translate(46 14.6)"/><use xlink:href="#a" transform="matrix(1,0,0,1,1117.3333333333333,985) translate(55 14.6)"/><use xlink:href="#a" transform="matrix(1,0,0,1,205,1016.6) translate(46 14.6)"/><use xlink:href="#a" transform="matrix(1,0,0,1,335.33333333333337,1016.6) translate(46 14.6)"/><use xlink:href="#a" transform="matrix(1,0,0,1,465.6666666666667,1016.6) translate(46 14.6)"/><use xlink:href="#a" transform="matrix(1,0,0,1,596,1016.6) translate(46 14.6)"/><use xlink:href="#a" transform="matrix(1,0,0,1,726.3333333333334,1016.6) translate(46 14.6)"/><use xlink:href="#a" transform="matrix(1,0,0,1,856.6666666666667,1016.6) translate(46 14.6)"/><use xlink:href="#a" transform="matrix(1,0,0,1,987,1016.6) translate(46 14.6)"/><use xlink:href="#a" transform="matrix(1,0,0,1,1117.3333333333333,1016.6) translate(55 14.6)"/><use xlink:href="#a" transform="matrix(1,0,0,1,205,1048.2) translate(46 14.6)"/><use xlink:href="#a" transform="matrix(1,0,0,1,335.33333333333337,1048.2) translate(46 14.6)"/><use xlink:href="#a" transform="matrix(1,0,0,1,465.6666666666667,1048.2) translate(46 14.6)"/><use xlink:href="#a" transform="matrix(1,0,0,1,596,1048.2) translate(46 14.6)"/><use xlink:href="#a" transform="matrix(1,0,0,1,726.3333333333334,1048.2) translate(46 14.6)"/><use xlink:href="#a" transform="matrix(1,0,0,1,856.6666666666667,1048.2) translate(46 14.6)"/><use xlink:href="#a" transform="matrix(1,0,0,1,987,1048.2) translate(46 14.6)"/><use xlink:href="#a" transform="matrix(1,0,0,1,1117.3333333333333,1048.2) translate(55 14.6)"/><use xlink:href="#a" transform="matrix(1,0,0,1,205,1079.8) translate(46 14.6)"/><use xlink:href="#a" transform="matrix(1,0,0,1,335.33333333333337,1079.8) translate(46 14.6)"/><use xlink:href="#a" transform="matrix(1,0,0,1,465.6666666666667,1079.8) translate(46 14.6)"/><use xlink:href="#a" transform="matrix(1,0,0,1,596,1079.8) translate(46 14.6)"/><use xlink:href="#a" transform="matrix(1,0,0,1,726.3333333333334,1079.8) translate(46 14.6)"/><use xlink:href="#a" transform="matrix(1,0,0,1,856.6666666666667,1079.8) translate(46 14.6)"/><use xlink:href="#a" transform="matrix(1,0,0,1,987,1079.8) translate(46 14.6)"/><use xlink:href="#a" transform="matrix(1,0,0,1,1117.3333333333333,1079.8) translate(55 14.6)"/><use xlink:href="#b" transform="matrix(1,0,0,1,205,1111.4) translate(53 14.6)"/><use xlink:href="#b" transform="matrix(1,0,0,1,335.33333333333337,1111.4) translate(53 14.6)"/><use xlink:href="#b" transform="matrix(1,0,0,1,465.6666666666667,1111.4) translate(53 14.6)"/><use xlink:href="#b" transform="matrix(1,0,0,1,596,1111.4) translate(53 14.6)"/><use xlink:href="#c" transform="matrix(1,0,0,1,726.3333333333334,1111.4) translate(53 14.6)"/><use xlink:href="#c" transform="matrix(1,0,0,1,856.6666666666667,1111.4) translate(53 14.6)"/><use xlink:href="#c" transform="matrix(1,0,0,1,987,1111.4) translate(53 14.6)"/><use xlink:href="#c" transform="matrix(1,0,0,1,1117.3333333333333,1111.4) translate(62 14.6)"/><use xlink:href="#a" transform="matrix(1,0,0,1,205,1143) translate(46 14.6)"/><use xlink:href="#a" transform="matrix(1,0,0,1,335.33333333333337,1143) translate(46 14.6)"/><use xlink:href="#a" transform="matrix(1,0,0,1,465.6666666666667,1143) translate(46 14.6)"/><use xlink:href="#a" transform="matrix(1,0,0,1,596,1143) translate(46 14.6)"/><use xlink:href="#a" transform="matrix(1,0,0,1,726.3333333333334,1143) translate(46 14.6)"/><use xlink:href="#a" transform="matrix(1,0,0,1,856.6666666666667,1143) translate(46 14.6)"/><use xlink:href="#a" transform="matrix(1,0,0,1,987,1143) translate(46 14.6)"/><use xlink:href="#d" transform="matrix(1,0,0,1,1117.3333333333333,1143) translate(0 14.6)"/><use xlink:href="#a" transform="matrix(1,0,0,1,205,1174.6) translate(46 14.6)"/><use xlink:href="#a" transform="matrix(1,0,0,1,335.33333333333337,1174.6) translate(46 14.6)"/><use xlink:href="#a" transform="matrix(1,0,0,1,465.6666666666667,1174.6) translate(46 14.6)"/><use xlink:href="#a" transform="matrix(1,0,0,1,596,1174.6) translate(46 14.6)"/><use xlink:href="#a" transform="matrix(1,0,0,1,726.3333333333334,1174.6) translate(46 14.6)"/><use xlink:href="#a" transform="matrix(1,0,0,1,856.6666666666667,1174.6) translate(46 14.6)"/><use xlink:href="#a" transform="matrix(1,0,0,1,987,1174.6) translate(46 14.6)"/><use xlink:href="#e" transform="matrix(1,0,0,1,1117.3333333333333,1174.6) translate(10.525000000000006 14.6)"/><path d="M202.33 960.5h-2V852.13h2z"/><path d="M201.33 975.76l-4.63-14.26h9.27z" fill="#fff"/><path d="M201.33 979l-6-18.5h12.02zm-3.26-16.5l3.26 10.03 3.26-10.03z"/><path/><use xlink:href="#f" transform="matrix(1,0,0,1,67.78240740740745,827.8666666666667) translate(0 16.177777777777777)"/><use xlink:href="#g" transform="matrix(1,0,0,1,67.78240740740745,827.8666666666667) translate(62.80123456790123 16.177777777777777)"/><use xlink:href="#h" transform="matrix(1,0,0,1,67.78240740740745,827.8666666666667) translate(149.19506172839505 16.177777777777777)"/><use xlink:href="#i" transform="matrix(1,0,0,1,67.78240740740745,827.8666666666667) translate(233.39814814814812 16.177777777777777)"/><path d="M1262.33 1276.67h-2v-55.97h2z"/><path d="M1265.97 1219.7h-9.27l4.63-14.26z" fill="#fff"/><path d="M1267.35 1220.7h-12.03l6-18.5zm-9.28-2h6.52l-3.27-10.03z"/><path/><g><use xlink:href="#f" transform="matrix(1,0,0,1,1110.9305552222222,1276.6666666666667) translate(0 16.177777777777777)"/><use xlink:href="#g" transform="matrix(1,0,0,1,1110.9305552222222,1276.6666666666667) translate(62.80123456790123 16.177777777777777)"/><use xlink:href="#h" transform="matrix(1,0,0,1,1110.9305552222222,1276.6666666666667) translate(149.19506172839505 16.177777777777777)"/><use xlink:href="#j" transform="matrix(1,0,0,1,1110.9305552222222,1276.6666666666667) translate(233.39814814814812 16.177777777777777)"/></g><defs><path d="M101-251c68 0 85 55 85 127S166 4 100 4C33 4 14-52 14-124c0-73 17-127 87-127zm-1 229c47 0 54-49 54-102s-4-102-53-102c-51 0-55 48-55 102 0 53 5 102 54 102" id="k"/><path d="M141 0L90-78 38 0H4l68-98-65-92h35l48 74 47-74h35l-64 92 68 98h-35" id="l"/><g id="a"><use transform="matrix(0.05,0,0,0.05,0,0)" xlink:href="#k"/><use transform="matrix(0.05,0,0,0.05,10,0)" xlink:href="#l"/><use transform="matrix(0.05,0,0,0.05,19,0)" xlink:href="#k"/></g><path d="M33 0v-38h34V0H33" id="m"/><g id="b"><use transform="matrix(0.05,0,0,0.05,0,0)" xlink:href="#m"/><use transform="matrix(0.05,0,0,0.05,5,0)" xlink:href="#m"/><use transform="matrix(0.05,0,0,0.05,10,0)" xlink:href="#m"/></g><g id="c"><use transform="matrix(0.05,0,0,0.05,0,0)" xlink:href="#m"/><use transform="matrix(0.05,0,0,0.05,5,0)" xlink:href="#m"/><use transform="matrix(0.05,0,0,0.05,10,0)" xlink:href="#m"/></g><path d="M54-142c48-35 137-8 131 61C196 18 31 33 14-55l32-4c7 23 22 37 52 37 35-1 51-22 54-58 4-55-73-65-99-34H22l8-134h141v27H59" id="n"/><path d="M85-194c31 0 48 13 60 33l-1-100h32l1 261h-30c-2-10 0-23-3-31C134-8 116 4 85 4 32 4 16-35 15-94c0-66 23-100 70-100zm9 24c-40 0-46 34-46 75 0 40 6 74 45 74 42 0 51-32 51-76 0-42-9-74-50-73" id="o"/><g id="d"><use transform="matrix(0.05,0,0,0.05,0,0)" xlink:href="#k"/><use transform="matrix(0.05,0,0,0.05,10,0)" xlink:href="#l"/><use transform="matrix(0.05,0,0,0.05,19,0)" xlink:href="#n"/><use transform="matrix(0.05,0,0,0.05,29,0)" xlink:href="#n"/><use transform="matrix(0.05,0,0,0.05,39,0)" xlink:href="#n"/><use transform="matrix(0.05,0,0,0.05,49,0)" xlink:href="#n"/><use transform="matrix(0.05,0,0,0.05,59,0)" xlink:href="#n"/><use transform="matrix(0.05,0,0,0.05,69,0)" xlink:href="#n"/><use transform="matrix(0.05,0,0,0.05,79,0)" xlink:href="#n"/><use transform="matrix(0.05,0,0,0.05,89,0)" xlink:href="#n"/><use transform="matrix(0.05,0,0,0.05,99,0)" xlink:href="#n"/><use transform="matrix(0.05,0,0,0.05,109,0)" xlink:href="#k"/><use transform="matrix(0.05,0,0,0.05,119,0)" xlink:href="#o"/><use transform="matrix(0.05,0,0,0.05,129,0)" xlink:href="#k"/></g><path d="M64 0c3-98 48-159 88-221H18v-27h164v26C143-157 98-101 97 0H64" id="p"/><path d="M101-234c-31-9-42 10-38 44h38v23H63V0H32v-167H5v-23h27c-7-52 17-82 69-68v24" id="q"/><path d="M141-36C126-15 110 5 73 4 37 3 15-17 15-53c-1-64 63-63 125-63 3-35-9-54-41-54-24 1-41 7-42 31l-33-3c5-37 33-52 76-52 45 0 72 20 72 64v82c-1 20 7 32 28 27v20c-31 9-61-2-59-35zM48-53c0 20 12 33 32 33 41-3 63-29 60-74-43 2-92-5-92 41" id="r"/><path d="M115-194c53 0 69 39 70 98 0 66-23 100-70 100C84 3 66-7 56-30L54 0H23l1-261h32v101c10-23 28-34 59-34zm-8 174c40 0 45-34 45-75 0-40-5-75-45-74-42 0-51 32-51 76 0 43 10 73 51 73" id="s"/><path d="M99-251c64 0 84 50 84 122C183-37 130 33 47-8c-14-7-20-23-25-40l30-5c6 39 69 39 84 7 9-19 16-44 16-74-10 22-31 35-62 35-49 0-73-33-73-83 0-54 28-83 82-83zm-1 141c31-1 51-18 51-49 0-36-14-67-51-67-34 0-49 23-49 58 0 34 15 58 49 58" id="t"/><g id="e"><use transform="matrix(0.05,0,0,0.05,0,0)" xlink:href="#k"/><use transform="matrix(0.05,0,0,0.05,10,0)" xlink:href="#l"/><use transform="matrix(0.05,0,0,0.05,19,0)" xlink:href="#p"/><use transform="matrix(0.05,0,0,0.05,29,0)" xlink:href="#q"/><use transform="matrix(0.05,0,0,0.05,33.65,0)" xlink:href="#q"/><use transform="matrix(0.05,0,0,0.05,38.3,0)" xlink:href="#q"/><use transform="matrix(0.05,0,0,0.05,42.949999999999996,0)" xlink:href="#q"/><use transform="matrix(0.05,0,0,0.05,47.949999999999996,0)" xlink:href="#p"/><use transform="matrix(0.05,0,0,0.05,57.94999999999999,0)" xlink:href="#r"/><use transform="matrix(0.05,0,0,0.05,67.94999999999999,0)" xlink:href="#k"/><use transform="matrix(0.05,0,0,0.05,77.94999999999999,0)" xlink:href="#n"/><use transform="matrix(0.05,0,0,0.05,87.94999999999999,0)" xlink:href="#s"/><use transform="matrix(0.05,0,0,0.05,97.94999999999999,0)" xlink:href="#t"/><use transform="matrix(0.05,0,0,0.05,107.94999999999999,0)" xlink:href="#p"/></g><path d="M67-125c0 54 23 88 75 88 28 0 53-7 68-21v-34h-60v-39h108v91C232-14 192 4 140 4 58 4 20-42 15-125 8-236 126-280 215-234c19 10 29 26 37 47l-47 15c-11-23-29-39-63-39-53 1-75 33-75 86" id="u"/><path d="M85 4C-2 5 27-109 22-190h50c7 57-23 150 33 157 60-5 35-97 40-157h50l1 190h-47c-2-12 1-28-3-38-12 25-28 42-61 42" id="v"/><path d="M185-48c-13 30-37 53-82 52C43 2 14-33 14-96s30-98 90-98c62 0 83 45 84 108H66c0 31 8 55 39 56 18 0 30-7 34-22zm-45-69c5-46-57-63-70-21-2 6-4 13-4 21h74" id="w"/><path d="M137-138c1-29-70-34-71-4 15 46 118 7 119 86 1 83-164 76-172 9l43-7c4 19 20 25 44 25 33 8 57-30 24-41C81-84 22-81 20-136c-2-80 154-74 161-7" id="x"/><path d="M115-3C79 11 28 4 28-45v-112H4v-33h27l15-45h31v45h36v33H77v99c-1 23 16 31 38 25v30" id="y"/><g id="f"><use transform="matrix(0.056172839506172835,0,0,0.056172839506172835,0,0)" xlink:href="#u"/><use transform="matrix(0.056172839506172835,0,0,0.056172839506172835,15.728395061728394,0)" xlink:href="#v"/><use transform="matrix(0.056172839506172835,0,0,0.056172839506172835,28.030246913580243,0)" xlink:href="#w"/><use transform="matrix(0.056172839506172835,0,0,0.056172839506172835,39.26481481481481,0)" xlink:href="#x"/><use transform="matrix(0.056172839506172835,0,0,0.056172839506172835,50.49938271604938,0)" xlink:href="#y"/></g><path d="M135-194c53 0 70 44 70 98 0 56-19 98-73 100-31 1-45-17-59-34 3 33 2 69 2 105H25l-1-265h48c2 10 0 23 3 31 11-24 29-35 60-35zM114-30c33 0 39-31 40-66 0-38-9-64-40-64-56 0-55 130 0 130" id="z"/><path d="M114-157C55-157 80-60 75 0H25v-261h50l-1 109c12-26 28-41 61-42 86-1 58 113 63 194h-50c-7-57 23-157-34-157" id="A"/><path d="M123 10C108 53 80 86 19 72V37c35 8 53-11 59-39L3-190h52l48 148c12-52 28-100 44-148h51" id="B"/><path d="M25-224v-37h50v37H25zM25 0v-190h50V0H25" id="C"/><path d="M190-63c-7 42-38 67-86 67-59 0-84-38-90-98-12-110 154-137 174-36l-49 2c-2-19-15-32-35-32-30 0-35 28-38 64-6 74 65 87 74 30" id="D"/><path d="M133-34C117-15 103 5 69 4 32 3 11-16 11-54c-1-60 55-63 116-61 1-26-3-47-28-47-18 1-26 9-28 27l-52-2c7-38 36-58 82-57s74 22 75 68l1 82c-1 14 12 18 25 15v27c-30 8-71 5-69-32zm-48 3c29 0 43-24 42-57-32 0-66-3-65 30 0 17 8 27 23 27" id="E"/><path d="M25 0v-261h50V0H25" id="F"/><g id="g"><use transform="matrix(0.056172839506172835,0,0,0.056172839506172835,0,0)" xlink:href="#z"/><use transform="matrix(0.056172839506172835,0,0,0.056172839506172835,12.30185185185185,0)" xlink:href="#A"/><use transform="matrix(0.056172839506172835,0,0,0.056172839506172835,24.6037037037037,0)" xlink:href="#B"/><use transform="matrix(0.056172839506172835,0,0,0.056172839506172835,35.83827160493827,0)" xlink:href="#x"/><use transform="matrix(0.056172839506172835,0,0,0.056172839506172835,47.07283950617284,0)" xlink:href="#C"/><use transform="matrix(0.056172839506172835,0,0,0.056172839506172835,52.690123456790126,0)" xlink:href="#D"/><use transform="matrix(0.056172839506172835,0,0,0.056172839506172835,63.92469135802469,0)" xlink:href="#E"/><use transform="matrix(0.056172839506172835,0,0,0.056172839506172835,75.15925925925926,0)" xlink:href="#F"/></g><path d="M220-157c-53 9-28 100-34 157h-49v-107c1-27-5-49-29-50C55-147 81-57 75 0H25l-1-190h47c2 12-1 28 3 38 10-53 101-56 108 0 13-22 24-43 59-42 82 1 51 116 57 194h-49v-107c-1-25-5-48-29-50" id="G"/><path d="M110-194c64 0 96 36 96 99 0 64-35 99-97 99-61 0-95-36-95-99 0-62 34-99 96-99zm-1 164c35 0 45-28 45-65 0-40-10-65-43-65-34 0-45 26-45 65 0 36 10 65 43 65" id="H"/><path d="M135-150c-39-12-60 13-60 57V0H25l-1-190h47c2 13-1 29 3 40 6-28 27-53 61-41v41" id="I"/><g id="h"><use transform="matrix(0.056172839506172835,0,0,0.056172839506172835,0,0)" xlink:href="#G"/><use transform="matrix(0.056172839506172835,0,0,0.056172839506172835,17.975308641975307,0)" xlink:href="#w"/><use transform="matrix(0.056172839506172835,0,0,0.056172839506172835,29.209876543209873,0)" xlink:href="#G"/><use transform="matrix(0.056172839506172835,0,0,0.056172839506172835,47.185185185185176,0)" xlink:href="#H"/><use transform="matrix(0.056172839506172835,0,0,0.056172839506172835,59.487037037037034,0)" xlink:href="#I"/><use transform="matrix(0.056172839506172835,0,0,0.056172839506172835,67.35123456790123,0)" xlink:href="#B"/></g><path d="M101-251c68 0 84 54 84 127C185-50 166 4 99 4S15-52 14-124c-1-75 17-127 87-127zm-1 216c37-5 36-46 36-89s4-89-36-89c-39 0-36 45-36 89 0 43-3 85 36 89" id="J"/><path d="M144 0l-44-69L55 0H2l70-98-66-92h53l41 62 40-62h54l-67 91 71 99h-54" id="K"/><g id="i"><use transform="matrix(0.056172839506172835,0,0,0.056172839506172835,0,0)" xlink:href="#J"/><use transform="matrix(0.056172839506172835,0,0,0.056172839506172835,11.234567901234566,0)" xlink:href="#K"/><use transform="matrix(0.056172839506172835,0,0,0.056172839506172835,22.469135802469133,0)" xlink:href="#J"/></g><path d="M138-131c27 9 52 24 51 61 0 53-36 74-89 74S11-19 11-69c0-35 22-54 51-61-78-25-46-121 38-121 51 0 83 19 83 66 0 30-18 49-45 54zm-38-16c24 0 32-13 32-36 1-23-11-34-32-34-22 0-33 12-32 34 0 22 9 36 32 36zm1 116c27 0 37-17 37-43 0-25-13-39-39-39-24 0-37 15-37 40 0 27 11 42 39 42" id="L"/><g id="j"><use transform="matrix(0.056172839506172835,0,0,0.056172839506172835,0,0)" xlink:href="#J"/><use transform="matrix(0.056172839506172835,0,0,0.056172839506172835,11.234567901234566,0)" xlink:href="#K"/><use transform="matrix(0.056172839506172835,0,0,0.056172839506172835,22.469135802469133,0)" xlink:href="#L"/><use transform="matrix(0.056172839506172835,0,0,0.056172839506172835,33.703703703703695,0)" xlink:href="#J"/><use transform="matrix(0.056172839506172835,0,0,0.056172839506172835,44.938271604938265,0)" xlink:href="#J"/><use transform="matrix(0.056172839506172835,0,0,0.056172839506172835,56.172839506172835,0)" xlink:href="#J"/></g></defs></g></svg>