<svg xmlns="http://www.w3.org/2000/svg" xmlns:xlink="http://www.w3.org/1999/xlink" xmlns:lucid="lucid" width="1448" height="569"><g transform="translate(-74 -1613)" lucid:page-tab-id="0_0"><path d="M240 1800h130.33v31.6H240z" fill="#99d5ca"/><path d="M370.33 1800h130.34v31.6H370.33z" fill="#99d2f2"/><path d="M500.67 1800H631v31.6H500.67z" fill="#ffdf71"/><path d="M631 1800h130.33v31.6H631z" fill="#b391b5"/><path d="M761.33 1800h130.34v31.6H761.33z" fill="#fff"/><path d="M891.67 1800H1022v31.6H891.67zM1022 1800h130.33v31.6H1022zM1152.33 1800h149v31.6h-149z" fill="#fff"/><path d="M240 1831.6h130.33v31.6H240z" fill="#99d5ca"/><path d="M370.33 1831.6h130.34v31.6H370.33z" fill="#99d2f2"/><path d="M500.67 1831.6H631v31.6H500.67z" fill="#ffdf71"/><path d="M631 1831.6h130.33v31.6H631z" fill="#b391b5"/><path d="M761.33 1831.6h130.34v31.6H761.33z" fill="#fff"/><path d="M891.67 1831.6H1022v31.6H891.67zM1022 1831.6h130.33v31.6H1022zM1152.33 1831.6h149v31.6h-149z" fill="#fff"/><path d="M240 1863.2h130.33v31.6H240z" fill="#99d5ca"/><path d="M370.33 1863.2h130.34v31.6H370.33z" fill="#99d2f2"/><path d="M500.67 1863.2H631v31.6H500.67z" fill="#ffdf71"/><path d="M631 1863.2h130.33v31.6H631z" fill="#b391b5"/><path d="M761.33 1863.2h130.34v31.6H761.33z" fill="#fff"/><path d="M891.67 1863.2H1022v31.6H891.67zM1022 1863.2h130.33v31.6H1022zM1152.33 1863.2h149v31.6h-149z" fill="#fff"/><path d="M240 1894.8h130.33v31.6H240z" fill="#99d5ca"/><path d="M370.33 1894.8h130.34v31.6H370.33z" fill="#99d2f2"/><path d="M500.67 1894.8H631v31.6H500.67z" fill="#ffdf71"/><path d="M631 1894.8h130.33v31.6H631z" fill="#b391b5"/><path d="M761.33 1894.8h130.34v31.6H761.33z" fill="#fff"/><path d="M891.67 1894.8H1022v31.6H891.67zM1022 1894.8h130.33v31.6H1022zM1152.33 1894.8h149v31.6h-149z" fill="#fff"/><path d="M240 1926.4h130.33v31.6H240z" fill="#99d5ca"/><path d="M370.33 1926.4h130.34v31.6H370.33z" fill="#99d2f2"/><path d="M500.67 1926.4H631v31.6H500.67z" fill="#ffdf71"/><path d="M631 1926.4h130.33v31.6H631z" fill="#b391b5"/><path d="M761.33 1926.4h130.34v31.6H761.33z" fill="#fff"/><path d="M891.67 1926.4H1022v31.6H891.67zM1022 1926.4h130.33v31.6H1022zM1152.33 1926.4h149v31.6h-149z" fill="#fff"/><path d="M240 1958h130.33v31.6H240z" fill="#99d5ca"/><path d="M370.33 1958h130.34v31.6H370.33z" fill="#99d2f2"/><path d="M500.67 1958H631v31.6H500.67z" fill="#ffdf71"/><path d="M631 1958h130.33v31.6H631z" fill="#b391b5"/><path d="M761.33 1958h130.34v31.6H761.33z" fill="#fff"/><path d="M891.67 1958H1022v31.6H891.67zM1022 1958h130.33v31.6H1022zM1152.33 1958h149v31.6h-149z" fill="#fff"/><path d="M240 1989.6h130.33v31.6H240z" fill="#99d5ca"/><path d="M370.33 1989.6h130.34v31.6H370.33z" fill="#99d2f2"/><path d="M500.67 1989.6H631v31.6H500.67z" fill="#ffdf71"/><path d="M631 1989.6h130.33v31.6H631z" fill="#b391b5"/><path d="M761.33 1989.6h130.34v31.6H761.33z" fill="#fff"/><path d="M891.67 1989.6H1022v31.6H891.67zM1022 1989.6h130.33v31.6H1022z" fill="#fff"/><path d="M1152.33 1989.6h149v31.6h-149z" fill="#ff8f80"/><path d="M240 2021.2h130.33v31.6H240z" fill="#99d5ca"/><path d="M370.33 2021.2h130.34v31.6H370.33z" fill="#99d2f2"/><path d="M500.67 2021.2H631v31.6H500.67z" fill="#ffdf71"/><path d="M631 2021.2h130.33v31.6H631z" fill="#b391b5"/><path d="M761.33 2021.2h130.34v31.6H761.33z" fill="#fff"/><path d="M891.67 2021.2H1022v31.6H891.67zM1022 2021.2h130.33v31.6H1022z" fill="#fff"/><path d="M1152.33 2021.2h149v31.6h-149z" fill="#ff8f80"/><path d="M240 1800v31.6M370.33 1800v31.6M500.67 1800v31.6M631 1800v31.6M761.33 1800v31.6M891.67 1800v31.6M1022 1800v31.6M1152.33 1800v31.6M1301.33 1800v31.6M240 1831.6v31.6M370.33 1831.6v31.6M500.67 1831.6v31.6M631 1831.6v31.6M761.33 1831.6v31.6M891.67 1831.6v31.6M1022 1831.6v31.6M1152.33 1831.6v31.6M1301.33 1831.6v31.6M240 1863.2v31.6M370.33 1863.2v31.6M500.67 1863.2v31.6M631 1863.2v31.6M761.33 1863.2v31.6M891.67 1863.2v31.6M1022 1863.2v31.6M1152.33 1863.2v31.6M1301.33 1863.2v31.6M240 1894.8v31.6M370.33 1894.8v31.6M500.67 1894.8v31.6M631 1894.8v31.6M761.33 1894.8v31.6M891.67 1894.8v31.6M1022 1894.8v31.6M1152.33 1894.8v31.6M1301.33 1894.8v31.6M240 1926.4v31.6M370.33 1926.4v31.6M500.67 1926.4v31.6M631 1926.4v31.6M761.33 1926.4v31.6M891.67 1926.4v31.6M1022 1926.4v31.6M1152.33 1926.4v31.6M1301.33 1926.4v31.6M240 1958v31.6M370.33 1958v31.6M500.67 1958v31.6M631 1958v31.6M761.33 1958v31.6M891.67 1958v31.6M1022 1958v31.6M1152.33 1958v31.6M1301.33 1958v31.6M240 1989.6v31.6M370.33 1989.6v31.6M500.67 1989.6v31.6M631 1989.6v31.6M761.33 1989.6v31.6M891.67 1989.6v31.6M1022 1989.6v31.6M1152.33 1989.6v31.6M1301.33 1989.6v31.6M240 2021.2v31.6M370.33 2021.2v31.6M500.67 2021.2v31.6M631 2021.2v31.6M761.33 2021.2v31.6M891.67 2021.2v31.6M1022 2021.2v31.6M1152.33 2021.2v31.6M1301.33 2021.2v31.6M240 1800h130.33M370.33 1800h130.34M500.67 1800H631M631 1800h130.33M761.33 1800h130.34M891.67 1800H1022M1022 1800h130.33M1152.33 1800h149M240 1831.6h130.33M370.33 1831.6h130.34M500.67 1831.6H631M631 1831.6h130.33M761.33 1831.6h130.34M891.67 1831.6H1022M1022 1831.6h130.33M1152.33 1831.6h149M240 1863.2h130.33M370.33 1863.2h130.34M500.67 1863.2H631M631 1863.2h130.33M761.33 1863.2h130.34M891.67 1863.2H1022M1022 1863.2h130.33M1152.33 1863.2h149M240 1894.8h130.33M370.33 1894.8h130.34M500.67 1894.8H631M631 1894.8h130.33M761.33 1894.8h130.34M891.67 1894.8H1022M1022 1894.8h130.33M1152.33 1894.8h149M240 1926.4h130.33M370.33 1926.4h130.34M500.67 1926.4H631M631 1926.4h130.33M761.33 1926.4h130.34M891.67 1926.4H1022M1022 1926.4h130.33M1152.33 1926.4h149M240 1958h130.33M370.33 1958h130.34M500.67 1958H631M631 1958h130.33M761.33 1958h130.34M891.67 1958H1022M1022 1958h130.33M1152.33 1958h149M240 1989.6h130.33M370.33 1989.6h130.34M500.67 1989.6H631M631 1989.6h130.33M761.33 1989.6h130.34M891.67 1989.6H1022M1022 1989.6h130.33M1152.33 1989.6h149M240 2021.2h130.33M240 2052.8h130.33M370.33 2021.2h130.34M370.33 2052.8h130.34M500.67 2021.2H631M500.67 2052.8H631M631 2021.2h130.33M631 2052.8h130.33M761.33 2021.2h130.34M761.33 2052.8h130.34M891.67 2021.2H1022M891.67 2052.8H1022M1022 2021.2h130.33M1022 2052.8h130.33M1152.33 2021.2h149M1152.33 2052.8h149" stroke="#000" stroke-width="2" fill="none"/><use xlink:href="#a" transform="matrix(1,0,0,1,245,1805) translate(46 14.6)"/><use xlink:href="#b" transform="matrix(1,0,0,1,375.33333333333337,1805) translate(31 14.6)"/><use xlink:href="#c" transform="matrix(1,0,0,1,505.6666666666667,1805) translate(31 14.6)"/><use xlink:href="#a" transform="matrix(1,0,0,1,636,1805) translate(46 14.6)"/><use xlink:href="#d" transform="matrix(1,0,0,1,766.3333333333334,1805) translate(31 14.6)"/><use xlink:href="#e" transform="matrix(1,0,0,1,896.6666666666667,1805) translate(31 14.6)"/><use xlink:href="#f" transform="matrix(1,0,0,1,1027,1805) translate(31 14.6)"/><use xlink:href="#g" transform="matrix(1,0,0,1,1157.3333333333333,1805) translate(55 14.6)"/><use xlink:href="#h" transform="matrix(1,0,0,1,245,1836.6) translate(31 14.6)"/><use xlink:href="#i" transform="matrix(1,0,0,1,375.33333333333337,1836.6) translate(46 14.6)"/><use xlink:href="#i" transform="matrix(1,0,0,1,505.6666666666667,1836.6) translate(46 14.6)"/><use xlink:href="#i" transform="matrix(1,0,0,1,636,1836.6) translate(46 14.6)"/><use xlink:href="#i" transform="matrix(1,0,0,1,766.3333333333334,1836.6) translate(46 14.6)"/><use xlink:href="#i" transform="matrix(1,0,0,1,896.6666666666667,1836.6) translate(46 14.6)"/><use xlink:href="#i" transform="matrix(1,0,0,1,1027,1836.6) translate(46 14.6)"/><use xlink:href="#j" transform="matrix(1,0,0,1,1157.3333333333333,1836.6) translate(40 14.6)"/><use xlink:href="#i" transform="matrix(1,0,0,1,245,1868.2) translate(46 14.6)"/><use xlink:href="#i" transform="matrix(1,0,0,1,375.33333333333337,1868.2) translate(46 14.6)"/><use xlink:href="#i" transform="matrix(1,0,0,1,505.6666666666667,1868.2) translate(46 14.6)"/><use xlink:href="#i" transform="matrix(1,0,0,1,636,1868.2) translate(46 14.6)"/><use xlink:href="#i" transform="matrix(1,0,0,1,766.3333333333334,1868.2) translate(46 14.6)"/><use xlink:href="#i" transform="matrix(1,0,0,1,896.6666666666667,1868.2) translate(46 14.6)"/><use xlink:href="#i" transform="matrix(1,0,0,1,1027,1868.2) translate(46 14.6)"/><use xlink:href="#k" transform="matrix(1,0,0,1,1157.3333333333333,1868.2) translate(40 14.6)"/><use xlink:href="#i" transform="matrix(1,0,0,1,245,1899.8) translate(46 14.6)"/><use xlink:href="#i" transform="matrix(1,0,0,1,375.33333333333337,1899.8) translate(46 14.6)"/><use xlink:href="#i" transform="matrix(1,0,0,1,505.6666666666667,1899.8) translate(46 14.6)"/><use xlink:href="#i" transform="matrix(1,0,0,1,636,1899.8) translate(46 14.6)"/><use xlink:href="#i" transform="matrix(1,0,0,1,766.3333333333334,1899.8) translate(46 14.6)"/><use xlink:href="#i" transform="matrix(1,0,0,1,896.6666666666667,1899.8) translate(46 14.6)"/><use xlink:href="#i" transform="matrix(1,0,0,1,1027,1899.8) translate(46 14.6)"/><use xlink:href="#l" transform="matrix(1,0,0,1,1157.3333333333333,1899.8) translate(40 14.6)"/><use xlink:href="#i" transform="matrix(1,0,0,1,245,1931.4) translate(46 14.6)"/><use xlink:href="#i" transform="matrix(1,0,0,1,375.33333333333337,1931.4) translate(46 14.6)"/><use xlink:href="#i" transform="matrix(1,0,0,1,505.6666666666667,1931.4) translate(46 14.6)"/><use xlink:href="#i" transform="matrix(1,0,0,1,636,1931.4) translate(46 14.6)"/><use xlink:href="#m" transform="matrix(1,0,0,1,766.3333333333334,1931.4) translate(46 14.6)"/><use xlink:href="#m" transform="matrix(1,0,0,1,896.6666666666667,1931.4) translate(46 14.6)"/><use xlink:href="#m" transform="matrix(1,0,0,1,1027,1931.4) translate(46 14.6)"/><use xlink:href="#m" transform="matrix(1,0,0,1,1157.3333333333333,1931.4) translate(55 14.6)"/><use xlink:href="#n" transform="matrix(1,0,0,1,245,1963) translate(53 14.6)"/><use xlink:href="#n" transform="matrix(1,0,0,1,375.33333333333337,1963) translate(53 14.6)"/><use xlink:href="#n" transform="matrix(1,0,0,1,505.6666666666667,1963) translate(53 14.6)"/><use xlink:href="#n" transform="matrix(1,0,0,1,636,1963) translate(53 14.6)"/><use xlink:href="#n" transform="matrix(1,0,0,1,766.3333333333334,1963) translate(53 14.6)"/><use xlink:href="#n" transform="matrix(1,0,0,1,896.6666666666667,1963) translate(53 14.6)"/><use xlink:href="#n" transform="matrix(1,0,0,1,1027,1963) translate(53 14.6)"/><use xlink:href="#o" transform="matrix(1,0,0,1,1157.3333333333333,1963) translate(62 14.6)"/><use xlink:href="#i" transform="matrix(1,0,0,1,245,1994.6) translate(46 14.6)"/><use xlink:href="#i" transform="matrix(1,0,0,1,375.33333333333337,1994.6) translate(46 14.6)"/><use xlink:href="#i" transform="matrix(1,0,0,1,505.6666666666667,1994.6) translate(46 14.6)"/><use xlink:href="#i" transform="matrix(1,0,0,1,636,1994.6) translate(46 14.6)"/><use xlink:href="#i" transform="matrix(1,0,0,1,766.3333333333334,1994.6) translate(46 14.6)"/><use xlink:href="#i" transform="matrix(1,0,0,1,896.6666666666667,1994.6) translate(46 14.6)"/><use xlink:href="#i" transform="matrix(1,0,0,1,1027,1994.6) translate(46 14.6)"/><use xlink:href="#p" transform="matrix(1,0,0,1,1157.3333333333333,1994.6) translate(0 14.6)"/><use xlink:href="#i" transform="matrix(1,0,0,1,245,2026.2) translate(46 14.6)"/><use xlink:href="#i" transform="matrix(1,0,0,1,375.33333333333337,2026.2) translate(46 14.6)"/><use xlink:href="#i" transform="matrix(1,0,0,1,505.6666666666667,2026.2) translate(46 14.6)"/><use xlink:href="#i" transform="matrix(1,0,0,1,636,2026.2) translate(46 14.6)"/><use xlink:href="#i" transform="matrix(1,0,0,1,766.3333333333334,2026.2) translate(46 14.6)"/><use xlink:href="#i" transform="matrix(1,0,0,1,896.6666666666667,2026.2) translate(46 14.6)"/><use xlink:href="#i" transform="matrix(1,0,0,1,1027,2026.2) translate(46 14.6)"/><use xlink:href="#q" transform="matrix(1,0,0,1,1157.3333333333333,2026.2) translate(10.525000000000006 14.6)"/><path d="M242.85 1780.5h-2l-.46-108.37h2z"/><path d="M241.9 1795.76l-4.68-14.24 9.27-.04z" fill="#fff"/><path d="M241.93 1799l-6.1-18.48 12.03-.05zm-3.33-16.5l3.3 10.03 3.2-10.05z"/><path/><use xlink:href="#r" transform="matrix(1,0,0,1,107.78240740740745,1647.8666666666666) translate(0 16.177777777777777)"/><use xlink:href="#s" transform="matrix(1,0,0,1,107.78240740740745,1647.8666666666666) translate(62.80123456790123 16.177777777777777)"/><use xlink:href="#t" transform="matrix(1,0,0,1,107.78240740740745,1647.8666666666666) translate(149.19506172839505 16.177777777777777)"/><use xlink:href="#u" transform="matrix(1,0,0,1,107.78240740740745,1647.8666666666666) translate(233.39814814814812 16.177777777777777)"/><path d="M1302.16 2100.3h-2l-.25-28h2z"/><path d="M1305.53 2071.26l-9.27.08 4.5-14.3z" fill="#fff"/><path d="M1306.92 2072.25l-12.03.1 5.84-18.55zm-9.3-1.92l6.53-.06-3.35-10z"/><path/><use xlink:href="#r" transform="matrix(1,0,0,1,1150.8624856049075,2100.285457833047) translate(0 16.177777777777777)"/><use xlink:href="#s" transform="matrix(1,0,0,1,1150.8624856049075,2100.285457833047) translate(62.80123456790123 16.177777777777777)"/><use xlink:href="#t" transform="matrix(1,0,0,1,1150.8624856049075,2100.285457833047) translate(149.19506172839505 16.177777777777777)"/><use xlink:href="#v" transform="matrix(1,0,0,1,1150.8624856049075,2100.285457833047) translate(233.39814814814812 16.177777777777777)"/><path d="M380 2060h100v40H380z" fill="#fff" fill-opacity="0"/><use xlink:href="#w" transform="matrix(1,0,0,1,385,2065) translate(0 16.177777777777774)"/><use xlink:href="#x" transform="matrix(1,0,0,1,385,2065) translate(35.10802469135802 16.177777777777774)"/><path d="M520 2060h100v40H520z" fill="#fff" fill-opacity="0"/><g><use xlink:href="#y" transform="matrix(1,0,0,1,525,2065) translate(0 16.177777777777774)"/><use xlink:href="#x" transform="matrix(1,0,0,1,525,2065) translate(35.10802469135802 16.177777777777774)"/></g><path d="M640 2060h100v40H640z" fill="#fff" fill-opacity="0"/><g><use xlink:href="#z" transform="matrix(1,0,0,1,645,2065) translate(0 16.177777777777774)"/><use xlink:href="#x" transform="matrix(1,0,0,1,645,2065) translate(35.10802469135802 16.177777777777774)"/></g><path d="M260 2060h100v40H260z" fill="#fff" fill-opacity="0"/><g><use xlink:href="#A" transform="matrix(1,0,0,1,265,2065) translate(0 16.177777777777774)"/><use xlink:href="#x" transform="matrix(1,0,0,1,265,2065) translate(35.10802469135802 16.177777777777774)"/></g><defs><path d="M101-251c68 0 85 55 85 127S166 4 100 4C33 4 14-52 14-124c0-73 17-127 87-127zm-1 229c47 0 54-49 54-102s-4-102-53-102c-51 0-55 48-55 102 0 53 5 102 54 102" id="B"/><path d="M141 0L90-78 38 0H4l68-98-65-92h35l48 74 47-74h35l-64 92 68 98h-35" id="C"/><path d="M126-127c33 6 58 20 58 59 0 88-139 92-164 29-3-8-5-16-6-25l32-3c6 27 21 44 54 44 32 0 52-15 52-46 0-38-36-46-79-43v-28c39 1 72-4 72-42 0-27-17-43-46-43-28 0-47 15-49 41l-32-3c6-42 35-63 81-64 48-1 79 21 79 65 0 36-21 52-52 59" id="D"/><g id="a"><use transform="matrix(0.05,0,0,0.05,0,0)" xlink:href="#B"/><use transform="matrix(0.05,0,0,0.05,10,0)" xlink:href="#C"/><use transform="matrix(0.05,0,0,0.05,19,0)" xlink:href="#D"/></g><g id="b"><use transform="matrix(0.05,0,0,0.05,0,0)" xlink:href="#B"/><use transform="matrix(0.05,0,0,0.05,10,0)" xlink:href="#C"/><use transform="matrix(0.05,0,0,0.05,19,0)" xlink:href="#D"/><use transform="matrix(0.05,0,0,0.05,29,0)" xlink:href="#B"/><use transform="matrix(0.05,0,0,0.05,39,0)" xlink:href="#B"/><use transform="matrix(0.05,0,0,0.05,49,0)" xlink:href="#D"/></g><path d="M155-56V0h-30v-56H8v-25l114-167h33v167h35v25h-35zm-30-156c-27 46-58 90-88 131h88v-131" id="E"/><g id="c"><use transform="matrix(0.05,0,0,0.05,0,0)" xlink:href="#B"/><use transform="matrix(0.05,0,0,0.05,10,0)" xlink:href="#C"/><use transform="matrix(0.05,0,0,0.05,19,0)" xlink:href="#E"/><use transform="matrix(0.05,0,0,0.05,29,0)" xlink:href="#B"/><use transform="matrix(0.05,0,0,0.05,39,0)" xlink:href="#B"/><use transform="matrix(0.05,0,0,0.05,49,0)" xlink:href="#D"/></g><path d="M54-142c48-35 137-8 131 61C196 18 31 33 14-55l32-4c7 23 22 37 52 37 35-1 51-22 54-58 4-55-73-65-99-34H22l8-134h141v27H59" id="F"/><g id="d"><use transform="matrix(0.05,0,0,0.05,0,0)" xlink:href="#B"/><use transform="matrix(0.05,0,0,0.05,10,0)" xlink:href="#C"/><use transform="matrix(0.05,0,0,0.05,19,0)" xlink:href="#F"/><use transform="matrix(0.05,0,0,0.05,29,0)" xlink:href="#B"/><use transform="matrix(0.05,0,0,0.05,39,0)" xlink:href="#B"/><use transform="matrix(0.05,0,0,0.05,49,0)" xlink:href="#D"/></g><path d="M110-160c48 1 74 30 74 79 0 53-28 85-80 85-65 0-83-55-86-122-5-90 50-162 133-122 14 7 22 21 27 39l-31 6c-5-40-67-38-82-6-9 19-15 44-15 74 11-20 30-34 60-33zm-7 138c34 0 49-23 49-58s-16-56-50-56c-29 0-50 16-49 49 1 36 15 65 50 65" id="G"/><g id="e"><use transform="matrix(0.05,0,0,0.05,0,0)" xlink:href="#B"/><use transform="matrix(0.05,0,0,0.05,10,0)" xlink:href="#C"/><use transform="matrix(0.05,0,0,0.05,19,0)" xlink:href="#G"/><use transform="matrix(0.05,0,0,0.05,29,0)" xlink:href="#B"/><use transform="matrix(0.05,0,0,0.05,39,0)" xlink:href="#B"/><use transform="matrix(0.05,0,0,0.05,49,0)" xlink:href="#D"/></g><path d="M64 0c3-98 48-159 88-221H18v-27h164v26C143-157 98-101 97 0H64" id="H"/><g id="f"><use transform="matrix(0.05,0,0,0.05,0,0)" xlink:href="#B"/><use transform="matrix(0.05,0,0,0.05,10,0)" xlink:href="#C"/><use transform="matrix(0.05,0,0,0.05,19,0)" xlink:href="#H"/><use transform="matrix(0.05,0,0,0.05,29,0)" xlink:href="#B"/><use transform="matrix(0.05,0,0,0.05,39,0)" xlink:href="#B"/><use transform="matrix(0.05,0,0,0.05,49,0)" xlink:href="#D"/></g><g id="g"><use transform="matrix(0.05,0,0,0.05,0,0)" xlink:href="#B"/><use transform="matrix(0.05,0,0,0.05,10,0)" xlink:href="#C"/><use transform="matrix(0.05,0,0,0.05,19,0)" xlink:href="#D"/></g><g id="h"><use transform="matrix(0.05,0,0,0.05,0,0)" xlink:href="#B"/><use transform="matrix(0.05,0,0,0.05,10,0)" xlink:href="#C"/><use transform="matrix(0.05,0,0,0.05,19,0)" xlink:href="#H"/><use transform="matrix(0.05,0,0,0.05,29,0)" xlink:href="#B"/><use transform="matrix(0.05,0,0,0.05,39,0)" xlink:href="#B"/><use transform="matrix(0.05,0,0,0.05,49,0)" xlink:href="#D"/></g><g id="i"><use transform="matrix(0.05,0,0,0.05,0,0)" xlink:href="#B"/><use transform="matrix(0.05,0,0,0.05,10,0)" xlink:href="#C"/><use transform="matrix(0.05,0,0,0.05,19,0)" xlink:href="#B"/></g><path d="M27 0v-27h64v-190l-56 39v-29l58-41h29v221h61V0H27" id="I"/><g id="j"><use transform="matrix(0.05,0,0,0.05,0,0)" xlink:href="#B"/><use transform="matrix(0.05,0,0,0.05,10,0)" xlink:href="#C"/><use transform="matrix(0.05,0,0,0.05,19,0)" xlink:href="#I"/><use transform="matrix(0.05,0,0,0.05,29,0)" xlink:href="#B"/><use transform="matrix(0.05,0,0,0.05,39,0)" xlink:href="#B"/><use transform="matrix(0.05,0,0,0.05,49,0)" xlink:href="#D"/></g><path d="M101-251c82-7 93 87 43 132L82-64C71-53 59-42 53-27h129V0H18c2-99 128-94 128-182 0-28-16-43-45-43s-46 15-49 41l-32-3c6-41 34-60 81-64" id="J"/><g id="k"><use transform="matrix(0.05,0,0,0.05,0,0)" xlink:href="#B"/><use transform="matrix(0.05,0,0,0.05,10,0)" xlink:href="#C"/><use transform="matrix(0.05,0,0,0.05,19,0)" xlink:href="#J"/><use transform="matrix(0.05,0,0,0.05,29,0)" xlink:href="#B"/><use transform="matrix(0.05,0,0,0.05,39,0)" xlink:href="#B"/><use transform="matrix(0.05,0,0,0.05,49,0)" xlink:href="#D"/></g><g id="l"><use transform="matrix(0.05,0,0,0.05,0,0)" xlink:href="#B"/><use transform="matrix(0.05,0,0,0.05,10,0)" xlink:href="#C"/><use transform="matrix(0.05,0,0,0.05,19,0)" xlink:href="#D"/><use transform="matrix(0.05,0,0,0.05,29,0)" xlink:href="#B"/><use transform="matrix(0.05,0,0,0.05,39,0)" xlink:href="#B"/><use transform="matrix(0.05,0,0,0.05,49,0)" xlink:href="#D"/></g><g id="m"><use transform="matrix(0.05,0,0,0.05,0,0)" xlink:href="#B"/><use transform="matrix(0.05,0,0,0.05,10,0)" xlink:href="#C"/><use transform="matrix(0.05,0,0,0.05,19,0)" xlink:href="#B"/></g><path d="M33 0v-38h34V0H33" id="K"/><g id="n"><use transform="matrix(0.05,0,0,0.05,0,0)" xlink:href="#K"/><use transform="matrix(0.05,0,0,0.05,5,0)" xlink:href="#K"/><use transform="matrix(0.05,0,0,0.05,10,0)" xlink:href="#K"/></g><g id="o"><use transform="matrix(0.05,0,0,0.05,0,0)" xlink:href="#K"/><use transform="matrix(0.05,0,0,0.05,5,0)" xlink:href="#K"/><use transform="matrix(0.05,0,0,0.05,10,0)" xlink:href="#K"/></g><path d="M85-194c31 0 48 13 60 33l-1-100h32l1 261h-30c-2-10 0-23-3-31C134-8 116 4 85 4 32 4 16-35 15-94c0-66 23-100 70-100zm9 24c-40 0-46 34-46 75 0 40 6 74 45 74 42 0 51-32 51-76 0-42-9-74-50-73" id="L"/><g id="p"><use transform="matrix(0.05,0,0,0.05,0,0)" xlink:href="#B"/><use transform="matrix(0.05,0,0,0.05,10,0)" xlink:href="#C"/><use transform="matrix(0.05,0,0,0.05,19,0)" xlink:href="#F"/><use transform="matrix(0.05,0,0,0.05,29,0)" xlink:href="#F"/><use transform="matrix(0.05,0,0,0.05,39,0)" xlink:href="#F"/><use transform="matrix(0.05,0,0,0.05,49,0)" xlink:href="#F"/><use transform="matrix(0.05,0,0,0.05,59,0)" xlink:href="#F"/><use transform="matrix(0.05,0,0,0.05,69,0)" xlink:href="#F"/><use transform="matrix(0.05,0,0,0.05,79,0)" xlink:href="#F"/><use transform="matrix(0.05,0,0,0.05,89,0)" xlink:href="#F"/><use transform="matrix(0.05,0,0,0.05,99,0)" xlink:href="#F"/><use transform="matrix(0.05,0,0,0.05,109,0)" xlink:href="#B"/><use transform="matrix(0.05,0,0,0.05,119,0)" xlink:href="#L"/><use transform="matrix(0.05,0,0,0.05,129,0)" xlink:href="#B"/></g><path d="M101-234c-31-9-42 10-38 44h38v23H63V0H32v-167H5v-23h27c-7-52 17-82 69-68v24" id="M"/><path d="M141-36C126-15 110 5 73 4 37 3 15-17 15-53c-1-64 63-63 125-63 3-35-9-54-41-54-24 1-41 7-42 31l-33-3c5-37 33-52 76-52 45 0 72 20 72 64v82c-1 20 7 32 28 27v20c-31 9-61-2-59-35zM48-53c0 20 12 33 32 33 41-3 63-29 60-74-43 2-92-5-92 41" id="N"/><path d="M115-194c53 0 69 39 70 98 0 66-23 100-70 100C84 3 66-7 56-30L54 0H23l1-261h32v101c10-23 28-34 59-34zm-8 174c40 0 45-34 45-75 0-40-5-75-45-74-42 0-51 32-51 76 0 43 10 73 51 73" id="O"/><path d="M99-251c64 0 84 50 84 122C183-37 130 33 47-8c-14-7-20-23-25-40l30-5c6 39 69 39 84 7 9-19 16-44 16-74-10 22-31 35-62 35-49 0-73-33-73-83 0-54 28-83 82-83zm-1 141c31-1 51-18 51-49 0-36-14-67-51-67-34 0-49 23-49 58 0 34 15 58 49 58" id="P"/><g id="q"><use transform="matrix(0.05,0,0,0.05,0,0)" xlink:href="#B"/><use transform="matrix(0.05,0,0,0.05,10,0)" xlink:href="#C"/><use transform="matrix(0.05,0,0,0.05,19,0)" xlink:href="#H"/><use transform="matrix(0.05,0,0,0.05,29,0)" xlink:href="#M"/><use transform="matrix(0.05,0,0,0.05,33.65,0)" xlink:href="#M"/><use transform="matrix(0.05,0,0,0.05,38.3,0)" xlink:href="#M"/><use transform="matrix(0.05,0,0,0.05,42.949999999999996,0)" xlink:href="#M"/><use transform="matrix(0.05,0,0,0.05,47.949999999999996,0)" xlink:href="#H"/><use transform="matrix(0.05,0,0,0.05,57.94999999999999,0)" xlink:href="#N"/><use transform="matrix(0.05,0,0,0.05,67.94999999999999,0)" xlink:href="#B"/><use transform="matrix(0.05,0,0,0.05,77.94999999999999,0)" xlink:href="#F"/><use transform="matrix(0.05,0,0,0.05,87.94999999999999,0)" xlink:href="#O"/><use transform="matrix(0.05,0,0,0.05,97.94999999999999,0)" xlink:href="#P"/><use transform="matrix(0.05,0,0,0.05,107.94999999999999,0)" xlink:href="#H"/></g><path d="M67-125c0 54 23 88 75 88 28 0 53-7 68-21v-34h-60v-39h108v91C232-14 192 4 140 4 58 4 20-42 15-125 8-236 126-280 215-234c19 10 29 26 37 47l-47 15c-11-23-29-39-63-39-53 1-75 33-75 86" id="Q"/><path d="M85 4C-2 5 27-109 22-190h50c7 57-23 150 33 157 60-5 35-97 40-157h50l1 190h-47c-2-12 1-28-3-38-12 25-28 42-61 42" id="R"/><path d="M185-48c-13 30-37 53-82 52C43 2 14-33 14-96s30-98 90-98c62 0 83 45 84 108H66c0 31 8 55 39 56 18 0 30-7 34-22zm-45-69c5-46-57-63-70-21-2 6-4 13-4 21h74" id="S"/><path d="M137-138c1-29-70-34-71-4 15 46 118 7 119 86 1 83-164 76-172 9l43-7c4 19 20 25 44 25 33 8 57-30 24-41C81-84 22-81 20-136c-2-80 154-74 161-7" id="T"/><path d="M115-3C79 11 28 4 28-45v-112H4v-33h27l15-45h31v45h36v33H77v99c-1 23 16 31 38 25v30" id="U"/><g id="r"><use transform="matrix(0.056172839506172835,0,0,0.056172839506172835,0,0)" xlink:href="#Q"/><use transform="matrix(0.056172839506172835,0,0,0.056172839506172835,15.728395061728394,0)" xlink:href="#R"/><use transform="matrix(0.056172839506172835,0,0,0.056172839506172835,28.030246913580243,0)" xlink:href="#S"/><use transform="matrix(0.056172839506172835,0,0,0.056172839506172835,39.26481481481481,0)" xlink:href="#T"/><use transform="matrix(0.056172839506172835,0,0,0.056172839506172835,50.49938271604938,0)" xlink:href="#U"/></g><path d="M135-194c53 0 70 44 70 98 0 56-19 98-73 100-31 1-45-17-59-34 3 33 2 69 2 105H25l-1-265h48c2 10 0 23 3 31 11-24 29-35 60-35zM114-30c33 0 39-31 40-66 0-38-9-64-40-64-56 0-55 130 0 130" id="V"/><path d="M114-157C55-157 80-60 75 0H25v-261h50l-1 109c12-26 28-41 61-42 86-1 58 113 63 194h-50c-7-57 23-157-34-157" id="W"/><path d="M123 10C108 53 80 86 19 72V37c35 8 53-11 59-39L3-190h52l48 148c12-52 28-100 44-148h51" id="X"/><path d="M25-224v-37h50v37H25zM25 0v-190h50V0H25" id="Y"/><path d="M190-63c-7 42-38 67-86 67-59 0-84-38-90-98-12-110 154-137 174-36l-49 2c-2-19-15-32-35-32-30 0-35 28-38 64-6 74 65 87 74 30" id="Z"/><path d="M133-34C117-15 103 5 69 4 32 3 11-16 11-54c-1-60 55-63 116-61 1-26-3-47-28-47-18 1-26 9-28 27l-52-2c7-38 36-58 82-57s74 22 75 68l1 82c-1 14 12 18 25 15v27c-30 8-71 5-69-32zm-48 3c29 0 43-24 42-57-32 0-66-3-65 30 0 17 8 27 23 27" id="aa"/><path d="M25 0v-261h50V0H25" id="ab"/><g id="s"><use transform="matrix(0.056172839506172835,0,0,0.056172839506172835,0,0)" xlink:href="#V"/><use transform="matrix(0.056172839506172835,0,0,0.056172839506172835,12.30185185185185,0)" xlink:href="#W"/><use transform="matrix(0.056172839506172835,0,0,0.056172839506172835,24.6037037037037,0)" xlink:href="#X"/><use transform="matrix(0.056172839506172835,0,0,0.056172839506172835,35.83827160493827,0)" xlink:href="#T"/><use transform="matrix(0.056172839506172835,0,0,0.056172839506172835,47.07283950617284,0)" xlink:href="#Y"/><use transform="matrix(0.056172839506172835,0,0,0.056172839506172835,52.690123456790126,0)" xlink:href="#Z"/><use transform="matrix(0.056172839506172835,0,0,0.056172839506172835,63.92469135802469,0)" xlink:href="#aa"/><use transform="matrix(0.056172839506172835,0,0,0.056172839506172835,75.15925925925926,0)" xlink:href="#ab"/></g><path d="M220-157c-53 9-28 100-34 157h-49v-107c1-27-5-49-29-50C55-147 81-57 75 0H25l-1-190h47c2 12-1 28 3 38 10-53 101-56 108 0 13-22 24-43 59-42 82 1 51 116 57 194h-49v-107c-1-25-5-48-29-50" id="ac"/><path d="M110-194c64 0 96 36 96 99 0 64-35 99-97 99-61 0-95-36-95-99 0-62 34-99 96-99zm-1 164c35 0 45-28 45-65 0-40-10-65-43-65-34 0-45 26-45 65 0 36 10 65 43 65" id="ad"/><path d="M135-150c-39-12-60 13-60 57V0H25l-1-190h47c2 13-1 29 3 40 6-28 27-53 61-41v41" id="ae"/><g id="t"><use transform="matrix(0.056172839506172835,0,0,0.056172839506172835,0,0)" xlink:href="#ac"/><use transform="matrix(0.056172839506172835,0,0,0.056172839506172835,17.975308641975307,0)" xlink:href="#S"/><use transform="matrix(0.056172839506172835,0,0,0.056172839506172835,29.209876543209873,0)" xlink:href="#ac"/><use transform="matrix(0.056172839506172835,0,0,0.056172839506172835,47.185185185185176,0)" xlink:href="#ad"/><use transform="matrix(0.056172839506172835,0,0,0.056172839506172835,59.487037037037034,0)" xlink:href="#ae"/><use transform="matrix(0.056172839506172835,0,0,0.056172839506172835,67.35123456790123,0)" xlink:href="#X"/></g><path d="M101-251c68 0 84 54 84 127C185-50 166 4 99 4S15-52 14-124c-1-75 17-127 87-127zm-1 216c37-5 36-46 36-89s4-89-36-89c-39 0-36 45-36 89 0 43-3 85 36 89" id="af"/><path d="M144 0l-44-69L55 0H2l70-98-66-92h53l41 62 40-62h54l-67 91 71 99h-54" id="ag"/><g id="u"><use transform="matrix(0.056172839506172835,0,0,0.056172839506172835,0,0)" xlink:href="#af"/><use transform="matrix(0.056172839506172835,0,0,0.056172839506172835,11.234567901234566,0)" xlink:href="#ag"/><use transform="matrix(0.056172839506172835,0,0,0.056172839506172835,22.469135802469133,0)" xlink:href="#af"/></g><path d="M138-131c27 9 52 24 51 61 0 53-36 74-89 74S11-19 11-69c0-35 22-54 51-61-78-25-46-121 38-121 51 0 83 19 83 66 0 30-18 49-45 54zm-38-16c24 0 32-13 32-36 1-23-11-34-32-34-22 0-33 12-32 34 0 22 9 36 32 36zm1 116c27 0 37-17 37-43 0-25-13-39-39-39-24 0-37 15-37 40 0 27 11 42 39 42" id="ah"/><g id="v"><use transform="matrix(0.056172839506172835,0,0,0.056172839506172835,0,0)" xlink:href="#af"/><use transform="matrix(0.056172839506172835,0,0,0.056172839506172835,11.234567901234566,0)" xlink:href="#ag"/><use transform="matrix(0.056172839506172835,0,0,0.056172839506172835,22.469135802469133,0)" xlink:href="#ah"/><use transform="matrix(0.056172839506172835,0,0,0.056172839506172835,33.703703703703695,0)" xlink:href="#af"/><use transform="matrix(0.056172839506172835,0,0,0.056172839506172835,44.938271604938265,0)" xlink:href="#af"/><use transform="matrix(0.056172839506172835,0,0,0.056172839506172835,56.172839506172835,0)" xlink:href="#af"/></g><path d="M24-248c93 1 206-16 204 79-1 75-69 88-152 82V0H24v-248zm52 121c47 0 100 7 100-41 0-47-54-39-100-39v80" id="ai"/><path d="M165-50V0h-47v-50H5v-38l105-160h55v161h33v37h-33zm-47-37l2-116L46-87h72" id="aj"/><path d="M62-158H24l-5-90h48" id="ak"/><g id="w"><use transform="matrix(0.05617283950617283,0,0,0.05617283950617283,0,0)" xlink:href="#ai"/><use transform="matrix(0.05617283950617283,0,0,0.05617283950617283,13.48148148148148,0)" xlink:href="#aj"/><use transform="matrix(0.05617283950617283,0,0,0.05617283950617283,24.716049382716044,0)" xlink:href="#ak"/></g><path d="M135-194c52 0 70 43 70 98 0 56-19 99-73 100-30 1-46-15-58-35L72 0H24l1-261h50v104c11-23 29-37 60-37zM114-30c31 0 40-27 40-66 0-37-7-63-39-63s-41 28-41 65c0 36 8 64 40 64" id="al"/><g id="x"><use transform="matrix(0.05617283950617283,0,0,0.05617283950617283,0,0)" xlink:href="#U"/><use transform="matrix(0.05617283950617283,0,0,0.05617283950617283,6.6845679012345665,0)" xlink:href="#aa"/><use transform="matrix(0.05617283950617283,0,0,0.05617283950617283,17.919135802469132,0)" xlink:href="#al"/><use transform="matrix(0.05617283950617283,0,0,0.05617283950617283,30.220987654320982,0)" xlink:href="#ab"/><use transform="matrix(0.05617283950617283,0,0,0.05617283950617283,35.838271604938264,0)" xlink:href="#S"/></g><path d="M128-127c34 4 56 21 59 58 7 91-148 94-172 28-4-9-6-17-7-26l51-5c1 24 16 35 40 36 23 0 39-12 38-36-1-31-31-36-65-34v-40c32 2 59-3 59-33 0-20-13-33-34-33s-33 13-35 32l-50-3c6-44 37-68 86-68 50 0 83 20 83 66 0 35-22 52-53 58" id="am"/><g id="y"><use transform="matrix(0.05617283950617283,0,0,0.05617283950617283,0,0)" xlink:href="#ai"/><use transform="matrix(0.05617283950617283,0,0,0.05617283950617283,13.48148148148148,0)" xlink:href="#am"/><use transform="matrix(0.05617283950617283,0,0,0.05617283950617283,24.716049382716044,0)" xlink:href="#ak"/></g><path d="M182-182c0 78-84 86-111 141h115V0H12c-6-101 99-100 120-180 1-22-12-31-33-32-23 0-32 14-35 34l-49-3c5-45 32-70 84-70 51 0 83 22 83 69" id="an"/><g id="z"><use transform="matrix(0.05617283950617283,0,0,0.05617283950617283,0,0)" xlink:href="#ai"/><use transform="matrix(0.05617283950617283,0,0,0.05617283950617283,13.48148148148148,0)" xlink:href="#an"/><use transform="matrix(0.05617283950617283,0,0,0.05617283950617283,24.716049382716044,0)" xlink:href="#ak"/></g><path d="M23 0v-37h61v-169l-59 37v-38l62-41h46v211h57V0H23" id="ao"/><g id="A"><use transform="matrix(0.05617283950617283,0,0,0.05617283950617283,0,0)" xlink:href="#ai"/><use transform="matrix(0.05617283950617283,0,0,0.05617283950617283,13.48148148148148,0)" xlink:href="#ao"/><use transform="matrix(0.05617283950617283,0,0,0.05617283950617283,24.716049382716044,0)" xlink:href="#ak"/></g></defs></g></svg>