<svg xmlns="http://www.w3.org/2000/svg" xmlns:xlink="http://www.w3.org/1999/xlink" xmlns:lucid="lucid" width="1940" height="1470"><g transform="translate(-165 0)" lucid:page-tab-id="0_0"><path d="M280 480h137v40H280z" fill="none"/><use xlink:href="#a" transform="matrix(1,0,0,1,280,480) translate(51.67623456790124 24.044444444444444)"/><path d="M218.67 32.67h240v60h-240z" fill="none"/><use xlink:href="#b" transform="matrix(1,0,0,1,218.66666666666663,32.66666666666665) translate(40.375 34.044444444444444)"/><use xlink:href="#c" transform="matrix(1,0,0,1,218.66666666666663,32.66666666666665) translate(98.6824074074074 34.044444444444444)"/><use xlink:href="#d" transform="matrix(1,0,0,1,218.66666666666663,32.66666666666665) translate(122.21882716049382 34.044444444444444)"/><use xlink:href="#e" transform="matrix(1,0,0,1,218.66666666666663,32.66666666666665) translate(152.55216049382716 34.044444444444444)"/><path d="M580 380h137v40H580zM580 420h137v40H580zM580 460h137v40H580zM580 500h137v40H580zM580 540h137v40H580zM580 580h137v40H580zM580 620h137v40H580zM580 660h137v40H580z" fill="#99d2f2"/><path d="M580 380v40M717 380v40M580 420v40M717 420v40M580 460v40M717 460v40M580 500v40M717 500v40M580 540v40M717 540v40M580 580v40M717 580v40M580 620v40M717 620v40M580 660v40M717 660v40M580 380h137M580 420h137M580 460h137M580 500h137M580 540h137M580 580h137M580 620h137M580 660h137M580 700h137" stroke="#000" stroke-width="2" fill="none"/><use xlink:href="#f" transform="matrix(1,0,0,1,585,385) translate(34 18.6)"/><use xlink:href="#g" transform="matrix(1,0,0,1,585,425) translate(49 18.6)"/><use xlink:href="#g" transform="matrix(1,0,0,1,585,465) translate(49 18.6)"/><use xlink:href="#g" transform="matrix(1,0,0,1,585,505) translate(49 18.6)"/><use xlink:href="#g" transform="matrix(1,0,0,1,585,545) translate(49 18.6)"/><use xlink:href="#h" transform="matrix(1,0,0,1,585,585) translate(56 18.6)"/><use xlink:href="#g" transform="matrix(1,0,0,1,585,625) translate(49 18.6)"/><use xlink:href="#g" transform="matrix(1,0,0,1,585,665) translate(49 18.6)"/><path d="M580 700h137v40H580z" fill="#fff" fill-opacity="0"/><use xlink:href="#i" transform="matrix(1,0,0,1,585,705) translate(0 16.177777777777774)"/><use xlink:href="#j" transform="matrix(1,0,0,1,585,705) translate(30.33333333333333 16.177777777777774)"/><path d="M866.7 380h137v40h-137zM866.7 420h137v40h-137zM866.7 460h137v40h-137zM866.7 500h137v40h-137zM866.7 540h137v40h-137zM866.7 580h137v40h-137zM866.7 620h137v40h-137zM866.7 660h137v40h-137z" fill="#ffdf71"/><path d="M866.7 380v40M1003.7 380v40M866.7 420v40M1003.7 420v40M866.7 460v40M1003.7 460v40M866.7 500v40M1003.7 500v40M866.7 540v40M1003.7 540v40M866.7 580v40M1003.7 580v40M866.7 620v40M1003.7 620v40M866.7 660v40M1003.7 660v40M866.7 380h137M866.7 420h137M866.7 460h137M866.7 500h137M866.7 540h137M866.7 580h137M866.7 620h137M866.7 660h137M866.7 700h137" stroke="#000" stroke-width="2" fill="none"/><use xlink:href="#k" transform="matrix(1,0,0,1,871.6999999999999,385) translate(34 18.6)"/><use xlink:href="#g" transform="matrix(1,0,0,1,871.6999999999999,425) translate(49 18.6)"/><use xlink:href="#g" transform="matrix(1,0,0,1,871.6999999999999,465) translate(49 18.6)"/><use xlink:href="#g" transform="matrix(1,0,0,1,871.6999999999999,505) translate(49 18.6)"/><use xlink:href="#g" transform="matrix(1,0,0,1,871.6999999999999,545) translate(49 18.6)"/><use xlink:href="#h" transform="matrix(1,0,0,1,871.6999999999999,585) translate(56 18.6)"/><use xlink:href="#g" transform="matrix(1,0,0,1,871.6999999999999,625) translate(49 18.6)"/><use xlink:href="#g" transform="matrix(1,0,0,1,871.6999999999999,665) translate(49 18.6)"/><path d="M866.7 700h137v40h-137z" fill="#fff" fill-opacity="0"/><use xlink:href="#l" transform="matrix(1,0,0,1,871.6999999999999,705) translate(0 16.177777777777774)"/><use xlink:href="#j" transform="matrix(1,0,0,1,871.6999999999999,705) translate(30.33333333333333 16.177777777777774)"/><path d="M1160 380h137v40h-137zM1160 420h137v40h-137zM1160 460h137v40h-137zM1160 500h137v40h-137zM1160 540h137v40h-137zM1160 580h137v40h-137zM1160 620h137v40h-137zM1160 660h137v40h-137z" fill="#b391b5"/><path d="M1160 380v40M1297 380v40M1160 420v40M1297 420v40M1160 460v40M1297 460v40M1160 500v40M1297 500v40M1160 540v40M1297 540v40M1160 580v40M1297 580v40M1160 620v40M1297 620v40M1160 660v40M1297 660v40M1160 380h137M1160 420h137M1160 460h137M1160 500h137M1160 540h137M1160 580h137M1160 620h137M1160 660h137M1160 700h137" stroke="#000" stroke-width="2" fill="none"/><use xlink:href="#m" transform="matrix(1,0,0,1,1165,385) translate(34 18.6)"/><use xlink:href="#g" transform="matrix(1,0,0,1,1165,425) translate(49 18.6)"/><use xlink:href="#g" transform="matrix(1,0,0,1,1165,465) translate(49 18.6)"/><use xlink:href="#g" transform="matrix(1,0,0,1,1165,505) translate(49 18.6)"/><use xlink:href="#g" transform="matrix(1,0,0,1,1165,545) translate(49 18.6)"/><use xlink:href="#h" transform="matrix(1,0,0,1,1165,585) translate(56 18.6)"/><use xlink:href="#g" transform="matrix(1,0,0,1,1165,625) translate(49 18.6)"/><use xlink:href="#g" transform="matrix(1,0,0,1,1165,665) translate(49 18.6)"/><path d="M1160 700h137v40h-137z" fill="#fff" fill-opacity="0"/><use xlink:href="#n" transform="matrix(1,0,0,1,1165,705) translate(0 16.177777777777774)"/><use xlink:href="#j" transform="matrix(1,0,0,1,1165,705) translate(30.33333333333333 16.177777777777774)"/><path d="M1440 380h149v40h-149zM1440 420h149v40h-149zM1440 460h149v40h-149zM1440 500h149v40h-149zM1440 540h149v40h-149zM1440 580h149v40h-149zM1440 620h149v40h-149zM1440 660h149v40h-149z" fill="#99d5ca"/><path d="M1440 380v40M1589 380v40M1440 420v40M1589 420v40M1440 460v40M1589 460v40M1440 500v40M1589 500v40M1440 540v40M1589 540v40M1440 580v40M1589 580v40M1440 620v40M1589 620v40M1440 660v40M1589 660v40M1440 380h149M1440 420h149M1440 460h149M1440 500h149M1440 540h149M1440 580h149M1440 620h149M1440 660h149M1440 700h149" stroke="#000" stroke-width="2" fill="none"/><use xlink:href="#o" transform="matrix(1,0,0,1,1445,385) translate(55 18.6)"/><use xlink:href="#p" transform="matrix(1,0,0,1,1445,425) translate(40 18.6)"/><use xlink:href="#q" transform="matrix(1,0,0,1,1445,465) translate(40 18.6)"/><use xlink:href="#r" transform="matrix(1,0,0,1,1445,505) translate(40 18.6)"/><use xlink:href="#g" transform="matrix(1,0,0,1,1445,545) translate(55 18.6)"/><use xlink:href="#h" transform="matrix(1,0,0,1,1445,585) translate(62 18.6)"/><use xlink:href="#s" transform="matrix(1,0,0,1,1445,625) translate(0 18.6)"/><use xlink:href="#t" transform="matrix(1,0,0,1,1445,665) translate(10.525000000000006 18.6)"/><path d="M1440 700h137v40h-137z" fill="#fff" fill-opacity="0"/><use xlink:href="#u" transform="matrix(1,0,0,1,1445,705) translate(0 16.177777777777774)"/><use xlink:href="#j" transform="matrix(1,0,0,1,1445,705) translate(30.33333333333333 16.177777777777774)"/><path d="M280 440h137v40H280z" fill="#fff"/><path d="M280 440v40M417 440v40M280 440h137M280 480h137" stroke="#000" stroke-width="2" fill="none"/><use xlink:href="#v" transform="matrix(1,0,0,1,285,445) translate(34 18.6)"/><path d="M1005.7 398.65l16.17-.32 13.2-.82 10.97-1.14 10.02-1.48 10.76-2.06 40.82-9.03 10.02-1.5 10.98-1.14 11.86-.74" stroke="#000" stroke-width="2" fill="none"/><path d="M1005.75 399.65l-1.05.02v-2l1-.02z"/><path d="M1155.76 380.07l-14.15 4.97-.2-9.27z" stroke="#000" stroke-width="2" fill="#fff"/><path d="M1299 403.98l12-.24 10.4-.65 8.77-.93 7.8-1.15 7.45-1.42 7.96-1.87 38.2-10.5 7.44-1.4 7.8-1.16 8.78-.9 4.9-.32" stroke="#000" stroke-width="2" fill="none"/><path d="M1299.05 404.98l-1.05.02v-2l1-.02z"/><path d="M1435.77 382.95l-14.1 5.1-.3-9.26z" stroke="#000" stroke-width="2" fill="#fff"/><path d="M1840 60h137v40h-137zM1840 100h137v40h-137zM1840 140h137v40h-137zM1840 180h137v40h-137zM1840 220h137v40h-137zM1840 260h137v40h-137zM1840 300h137v40h-137zM1840 340h137v40h-137z" fill="#fff"/><path d="M1840 60v40M1977 60v40M1840 100v40M1977 100v40M1840 140v40M1977 140v40M1840 180v40M1977 180v40M1840 220v40M1977 220v40M1840 260v40M1977 260v40M1840 300v40M1977 300v40M1840 340v40M1977 340v40M1840 60h137M1840 100h137M1840 140h137M1840 180h137M1840 220h137M1840 260h137M1840 300h137M1840 340h137M1840 380h137" stroke="#000" stroke-width="2" fill="none"/><use xlink:href="#g" transform="matrix(1,0,0,1,1845,65) translate(49 18.6)"/><use xlink:href="#g" transform="matrix(1,0,0,1,1845,105) translate(49 18.6)"/><use xlink:href="#g" transform="matrix(1,0,0,1,1845,145) translate(49 18.6)"/><use xlink:href="#g" transform="matrix(1,0,0,1,1845,185) translate(49 18.6)"/><use xlink:href="#g" transform="matrix(1,0,0,1,1845,225) translate(49 18.6)"/><use xlink:href="#h" transform="matrix(1,0,0,1,1845,265) translate(56 18.6)"/><use xlink:href="#g" transform="matrix(1,0,0,1,1845,305) translate(49 18.6)"/><use xlink:href="#g" transform="matrix(1,0,0,1,1845,345) translate(49 18.6)"/><path d="M1840 400h137v40h-137zM1840 440h137v40h-137zM1840 480h137v40h-137zM1840 520h137v40h-137zM1840 560h137v40h-137zM1840 600h137v40h-137zM1840 640h137v40h-137zM1840 680h137v40h-137z" fill="#fff"/><path d="M1840 400v40M1977 400v40M1840 440v40M1977 440v40M1840 480v40M1977 480v40M1840 520v40M1977 520v40M1840 560v40M1977 560v40M1840 600v40M1977 600v40M1840 640v40M1977 640v40M1840 680v40M1977 680v40M1840 400h137M1840 440h137M1840 480h137M1840 520h137M1840 560h137M1840 600h137M1840 640h137M1840 680h137M1840 720h137" stroke="#000" stroke-width="2" fill="none"/><use xlink:href="#g" transform="matrix(1,0,0,1,1845,405) translate(49 18.6)"/><use xlink:href="#g" transform="matrix(1,0,0,1,1845,445) translate(49 18.6)"/><use xlink:href="#g" transform="matrix(1,0,0,1,1845,485) translate(49 18.6)"/><use xlink:href="#g" transform="matrix(1,0,0,1,1845,525) translate(49 18.6)"/><use xlink:href="#g" transform="matrix(1,0,0,1,1845,565) translate(49 18.6)"/><use xlink:href="#h" transform="matrix(1,0,0,1,1845,605) translate(56 18.6)"/><use xlink:href="#g" transform="matrix(1,0,0,1,1845,645) translate(49 18.6)"/><use xlink:href="#g" transform="matrix(1,0,0,1,1845,685) translate(49 18.6)"/><path d="M1840 740h137v40h-137zM1840 780h137v40h-137zM1840 820h137v40h-137zM1840 860h137v40h-137zM1840 900h137v40h-137zM1840 940h137v40h-137zM1840 980h137v40h-137zM1840 1020h137v40h-137z" fill="#fff"/><path d="M1840 740v40M1977 740v40M1840 780v40M1977 780v40M1840 820v40M1977 820v40M1840 860v40M1977 860v40M1840 900v40M1977 900v40M1840 940v40M1977 940v40M1840 980v40M1977 980v40M1840 1020v40M1977 1020v40M1840 740h137M1840 780h137M1840 820h137M1840 860h137M1840 900h137M1840 940h137M1840 980h137M1840 1020h137M1840 1060h137" stroke="#000" stroke-width="2" fill="none"/><use xlink:href="#g" transform="matrix(1,0,0,1,1845,745) translate(49 18.6)"/><use xlink:href="#g" transform="matrix(1,0,0,1,1845,785) translate(49 18.6)"/><use xlink:href="#g" transform="matrix(1,0,0,1,1845,825) translate(49 18.6)"/><use xlink:href="#g" transform="matrix(1,0,0,1,1845,865) translate(49 18.6)"/><use xlink:href="#g" transform="matrix(1,0,0,1,1845,905) translate(49 18.6)"/><use xlink:href="#h" transform="matrix(1,0,0,1,1845,945) translate(56 18.6)"/><use xlink:href="#g" transform="matrix(1,0,0,1,1845,985) translate(49 18.6)"/><use xlink:href="#g" transform="matrix(1,0,0,1,1845,1025) translate(49 18.6)"/><path d="M419 459.98l4.05-.08 4.67-.3 4.35-.45 4.1-.6 3.87-.75 3.7-.86 3.57-1 3.46-1.12 3.38-1.26 3.34-1.4 3.32-1.57 3.36-1.76 3.42-1.98 3.58-2.27 3.8-2.66 4.25-3.22 5.1-4.22 7.74-7 20.66-19.33 5.1-4.22 4.23-3.22 3.8-2.66 3.6-2.26 3.4-1.97 3.37-1.76 3.32-1.56 3.34-1.4 3.38-1.25 3.45-1.12 3.56-1 3.7-.87 3.62-.7" stroke="#000" stroke-width="2" fill="none"/><path d="M419.05 460.98L418 461v-2l1-.02z"/><path d="M575.77 382.93l-13.84 5.78-.75-9.23z" stroke="#000" stroke-width="2" fill="#fff"/><path d="M719 398.65l14.82-.3 12.27-.76 10.2-1.08 9.26-1.37 9.54-1.82 43.04-9.82 9.25-1.35 10.2-1.07 9.6-.6" stroke="#000" stroke-width="2" fill="none"/><path d="M719.05 399.65l-1.05.02v-2l1-.02z"/><path d="M862.47 380.08l-14.15 5-.24-9.26z" stroke="#000" stroke-width="2" fill="#fff"/><path d="M1591 399.98l1.83-.04 2.75-.17 2.68-.28 2.64-.4 2.6-.5 2.58-.6 2.55-.72 2.55-.83 2.55-.94 2.56-1.07 2.58-1.22 2.6-1.36 2.68-1.54 2.72-1.72 2.8-1.95 2.87-2.18 2.98-2.47 3.1-2.8 3.27-3.2 3.44-3.66 3.65-4.24 3.9-4.95 4.26-5.85 4.66-7.03 5.22-8.62 5.97-10.9 7.16-14.43 9.28-20.94 16.86-43.1 33.26-87.62 9.28-20.94 7.15-14.43 5.96-10.9 5.22-8.62 4.66-7.03 4.25-5.85 3.9-4.95 3.66-4.24 3.44-3.66 3.26-3.2 3.1-2.8 3-2.47 2.87-2.18 2.8-1.95 2.7-1.72 2.68-1.54 2.62-1.37 2.6-1.23 2.55-1.08 2.55-.95 2.55-.83.38-.1" stroke="#000" stroke-width="2" fill="none"/><path d="M1591.05 400.98l-1.05.02v-2l1-.02z"/><path d="M1835.8 60.46l-13.47 6.6-1.3-9.17z" stroke="#000" stroke-width="2" fill="#fff"/><path d="M1591 434.65l23.52-.47 19.35-1.2 16.22-1.7 14.5-2.14 14.17-2.7 16.68-3.94 54.78-14.26 14.17-2.7 14.5-2.15 16.23-1.7 19.35-1.2 6.02-.13" stroke="#000" stroke-width="2" fill="none"/><path d="M1591.05 435.65l-1.05.02v-2l1-.02z"/><path d="M1835.76 400.06l-14.17 4.92-.2-9.26z" stroke="#000" stroke-width="2" fill="#fff"/><path d="M1591 478.7l2.66.04 3.53.22 3.4.36 3.34.5 3.26.62 3.2.75 3.16.87 3.13 1.02 3.1 1.14 3.1 1.3 3.13 1.48 3.14 1.64 3.18 1.84 3.23 2.05 3.3 2.3 3.4 2.58 3.52 2.9 3.66 3.3 3.84 3.77 4.07 4.33 4.35 5.05 4.72 5.96 5.22 7.2 5.94 8.95 7.08 11.72 9.4 17.16 50.24 100.27 7.08 11.73 5.94 8.95 5.22 7.2 4.72 5.96 4.35 5.03 4.07 4.33 3.84 3.77 3.66 3.3 3.5 2.9 3.4 2.6 3.32 2.3 3.23 2.04 3.18 1.84 3.14 1.65 3.12 1.47 3.1 1.3 3.1 1.16 3.14 1.02 3.16.88 2.05.48" stroke="#000" stroke-width="2" fill="none"/><path d="M1591.05 477.7l-.04 2-1-.03v-2z"/><path d="M1835.78 739.64l-14.7 3.03 1.04-9.2z" stroke="#000" stroke-width="2" fill="#fff"/><path d="M1840 1080h137v40h-137zM1840 1120h137v40h-137zM1840 1160h137v40h-137zM1840 1200h137v40h-137zM1840 1240h137v40h-137zM1840 1280h137v40h-137zM1840 1320h137v40h-137zM1840 1360h137v40h-137z" fill="#fff"/><path d="M1840 1080v40M1977 1080v40M1840 1120v40M1977 1120v40M1840 1160v40M1977 1160v40M1840 1200v40M1977 1200v40M1840 1240v40M1977 1240v40M1840 1280v40M1977 1280v40M1840 1320v40M1977 1320v40M1840 1360v40M1977 1360v40M1840 1080h137M1840 1120h137M1840 1160h137M1840 1200h137M1840 1240h137M1840 1280h137M1840 1320h137M1840 1360h137M1840 1400h137" stroke="#000" stroke-width="2" fill="none"/><use xlink:href="#g" transform="matrix(1,0,0,1,1845,1085) translate(49 18.6)"/><use xlink:href="#g" transform="matrix(1,0,0,1,1845,1125) translate(49 18.6)"/><use xlink:href="#g" transform="matrix(1,0,0,1,1845,1165) translate(49 18.6)"/><use xlink:href="#g" transform="matrix(1,0,0,1,1845,1205) translate(49 18.6)"/><use xlink:href="#g" transform="matrix(1,0,0,1,1845,1245) translate(49 18.6)"/><use xlink:href="#h" transform="matrix(1,0,0,1,1845,1285) translate(56 18.6)"/><use xlink:href="#g" transform="matrix(1,0,0,1,1845,1325) translate(49 18.6)"/><use xlink:href="#g" transform="matrix(1,0,0,1,1845,1365) translate(49 18.6)"/><path d="M1591 522.7h.74l1.7.1 1.7.2 1.66.24 1.67.3 1.67.4 1.67.47 1.7.56 1.7.63 1.72.72 1.76.83 1.8.94 1.84 1.05 1.9 1.2 1.97 1.38 2.03 1.55 2.14 1.77 2.24 2 2.37 2.33 2.5 2.67 2.68 3.1 2.88 3.64 3.1 4.27 3.4 5.12 3.75 6.18 4.17 7.6 4.72 9.53 5.42 12.23 6.4 16.22 7.86 22.67 10.4 34.66 17.6 69.6 46.88 198.5 10.4 34.67 7.86 22.66 6.4 16.24 5.43 12.22 4.72 9.52 4.17 7.6 3.74 6.2 3.4 5.1 3.1 4.3 2.9 3.63 2.66 3.1 2.5 2.7 2.37 2.3 2.23 2.02 2.14 1.77 2.04 1.54 1.98 1.37 1.9 1.2 1.84 1.08 1.8.94.8.38" stroke="#000" stroke-width="2" fill="none"/><path d="M1591.05 521.7l-.04 2-1-.03v-2z"/><path d="M1835.85 1079.28l-14.95 1.32 2.08-9.03z" stroke="#000" stroke-width="2" fill="#fff"/><path d="M215.2 120h30v40h-30zM245.2 120h30v40h-30zM275.2 120h30v40h-30zM305.2 120h30v40h-30zM335.2 120h30v40h-30zM365.2 120h30v40h-30zM395.2 120h30v40h-30zM425.2 120h30v40h-30zM455.2 120h30v40h-30z" fill="#99d2f2"/><path d="M485.2 120h30v40h-30zM515.2 120h30v40h-30zM545.2 120h30v40h-30zM575.2 120h30v40h-30zM605.2 120h30v40h-30zM635.2 120h30v40h-30zM665.2 120h30v40h-30zM695.2 120h30v40h-30zM725.2 120h30v40h-30z" fill="#ffdf71"/><path d="M755.2 120h30v40h-30zM785.2 120h30v40h-30zM815.2 120h30v40h-30zM845.2 120h30v40h-30zM875.2 120h30v40h-30zM905.2 120h30v40h-30zM935.2 120h30v40h-30zM965.2 120h30v40h-30zM995.2 120h30v40h-30z" fill="#b391b5"/><path d="M1025.2 120h30v40h-30zM1055.2 120h30v40h-30zM1085.2 120h30v40h-30zM1115.2 120h30v40h-30zM1145.2 120h30v40h-30zM1175.2 120h30v40h-30zM1205.2 120h30v40h-30zM1235.2 120h30v40h-30zM1265.2 120h30v40h-30z" fill="#99d5ca"/><path d="M1295.2 120h30v40h-30zM1325.2 120h30v40h-30zM1355.2 120h30v40h-30zM1385.2 120h30v40h-30zM1415.2 120h30v40h-30zM1445.2 120h30v40h-30zM1475.2 120h30v40h-30zM1505.2 120h30v40h-30zM1535.2 120h30v40h-30zM1565.2 120h30v40h-30zM1595.2 120h30v40h-30zM1625.2 120h30v40h-30z" fill="#fff"/><path d="M215.2 120v40M245.2 120v40M275.2 120v40M305.2 120v40M335.2 120v40M365.2 120v40M395.2 120v40M425.2 120v40M455.2 120v40M485.2 120v40M515.2 120v40M545.2 120v40M575.2 120v40M605.2 120v40M635.2 120v40M665.2 120v40M695.2 120v40M725.2 120v40M755.2 120v40M785.2 120v40M815.2 120v40M845.2 120v40M875.2 120v40M905.2 120v40M935.2 120v40M965.2 120v40M995.2 120v40M1025.2 120v40M1055.2 120v40M1085.2 120v40M1115.2 120v40M1145.2 120v40M1175.2 120v40M1205.2 120v40M1235.2 120v40M1265.2 120v40M1295.2 120v40M1325.2 120v40M1355.2 120v40M1385.2 120v40M1415.2 120v40M1445.2 120v40M1475.2 120v40M1505.2 120v40M1535.2 120v40M1565.2 120v40M1595.2 120v40M1625.2 120v40M1655.2 120v40M215.2 120h30M215.2 160h30M245.2 120h30M245.2 160h30M275.2 120h30M275.2 160h30M305.2 120h30M305.2 160h30M335.2 120h30M335.2 160h30M365.2 120h30M365.2 160h30M395.2 120h30M395.2 160h30M425.2 120h30M425.2 160h30M455.2 120h30M455.2 160h30M485.2 120h30M485.2 160h30M515.2 120h30M515.2 160h30M545.2 120h30M545.2 160h30M575.2 120h30M575.2 160h30M605.2 120h30M605.2 160h30M635.2 120h30M635.2 160h30M665.2 120h30M665.2 160h30M695.2 120h30M695.2 160h30M725.2 120h30M725.2 160h30M755.2 120h30M755.2 160h30M785.2 120h30M785.2 160h30M815.2 120h30M815.2 160h30M845.2 120h30M845.2 160h30M875.2 120h30M875.2 160h30M905.2 120h30M905.2 160h30M935.2 120h30M935.2 160h30M965.2 120h30M965.2 160h30M995.2 120h30M995.2 160h30M1025.2 120h30M1025.2 160h30M1055.2 120h30M1055.2 160h30M1085.2 120h30M1085.2 160h30M1115.2 120h30M1115.2 160h30M1145.2 120h30M1145.2 160h30M1175.2 120h30M1175.2 160h30M1205.2 120h30M1205.2 160h30M1235.2 120h30M1235.2 160h30M1265.2 120h30M1265.2 160h30M1295.2 120h30M1295.2 160h30M1325.2 120h30M1325.2 160h30M1355.2 120h30M1355.2 160h30M1385.2 120h30M1385.2 160h30M1415.2 120h30M1415.2 160h30M1445.2 120h30M1445.2 160h30M1475.2 120h30M1475.2 160h30M1505.2 120h30M1505.2 160h30M1535.2 120h30M1535.2 160h30M1565.2 120h30M1565.2 160h30M1595.2 120h30M1595.2 160h30M1625.2 120h30M1625.2 160h30" stroke="#000" stroke-width="2" fill="none"/><use xlink:href="#w" transform="matrix(1,0,0,1,220.19999999999993,125) translate(5 18.6)"/><use xlink:href="#w" transform="matrix(1,0,0,1,250.19999999999993,125) translate(5 18.6)"/><use xlink:href="#w" transform="matrix(1,0,0,1,280.19999999999993,125) translate(5 18.6)"/><use xlink:href="#w" transform="matrix(1,0,0,1,310.19999999999993,125) translate(5 18.6)"/><use xlink:href="#w" transform="matrix(1,0,0,1,340.19999999999993,125) translate(5 18.6)"/><use xlink:href="#w" transform="matrix(1,0,0,1,370.19999999999993,125) translate(5 18.6)"/><use xlink:href="#w" transform="matrix(1,0,0,1,400.19999999999993,125) translate(5 18.6)"/><use xlink:href="#w" transform="matrix(1,0,0,1,430.19999999999993,125) translate(5 18.6)"/><use xlink:href="#w" transform="matrix(1,0,0,1,460.19999999999993,125) translate(5 18.6)"/><use xlink:href="#w" transform="matrix(1,0,0,1,490.19999999999993,125) translate(5 18.6)"/><use xlink:href="#w" transform="matrix(1,0,0,1,520.1999999999999,125) translate(5 18.6)"/><use xlink:href="#w" transform="matrix(1,0,0,1,550.1999999999999,125) translate(5 18.6)"/><use xlink:href="#w" transform="matrix(1,0,0,1,580.1999999999999,125) translate(5 18.6)"/><use xlink:href="#w" transform="matrix(1,0,0,1,610.1999999999999,125) translate(5 18.6)"/><use xlink:href="#w" transform="matrix(1,0,0,1,640.1999999999999,125) translate(5 18.6)"/><use xlink:href="#w" transform="matrix(1,0,0,1,670.1999999999999,125) translate(5 18.6)"/><use xlink:href="#w" transform="matrix(1,0,0,1,700.1999999999999,125) translate(5 18.6)"/><use xlink:href="#w" transform="matrix(1,0,0,1,730.1999999999999,125) translate(5 18.6)"/><use xlink:href="#w" transform="matrix(1,0,0,1,760.1999999999999,125) translate(5 18.6)"/><use xlink:href="#w" transform="matrix(1,0,0,1,790.1999999999999,125) translate(5 18.6)"/><use xlink:href="#w" transform="matrix(1,0,0,1,820.1999999999999,125) translate(5 18.6)"/><use xlink:href="#w" transform="matrix(1,0,0,1,850.1999999999999,125) translate(5 18.6)"/><use xlink:href="#w" transform="matrix(1,0,0,1,880.1999999999999,125) translate(5 18.6)"/><use xlink:href="#w" transform="matrix(1,0,0,1,910.1999999999999,125) translate(5 18.6)"/><use xlink:href="#w" transform="matrix(1,0,0,1,940.1999999999999,125) translate(5 18.6)"/><use xlink:href="#w" transform="matrix(1,0,0,1,970.1999999999999,125) translate(5 18.6)"/><use xlink:href="#w" transform="matrix(1,0,0,1,1000.1999999999999,125) translate(5 18.6)"/><use xlink:href="#w" transform="matrix(1,0,0,1,1030.1999999999998,125) translate(5 18.6)"/><use xlink:href="#w" transform="matrix(1,0,0,1,1060.1999999999998,125) translate(5 18.6)"/><use xlink:href="#w" transform="matrix(1,0,0,1,1090.1999999999998,125) translate(5 18.6)"/><use xlink:href="#w" transform="matrix(1,0,0,1,1120.1999999999998,125) translate(5 18.6)"/><use xlink:href="#w" transform="matrix(1,0,0,1,1150.1999999999998,125) translate(5 18.6)"/><use xlink:href="#w" transform="matrix(1,0,0,1,1180.1999999999998,125) translate(5 18.6)"/><use xlink:href="#x" transform="matrix(1,0,0,1,1210.1999999999998,125) translate(5 18.6)"/><use xlink:href="#x" transform="matrix(1,0,0,1,1240.1999999999998,125) translate(5 18.6)"/><use xlink:href="#x" transform="matrix(1,0,0,1,1270.1999999999998,125) translate(5 18.6)"/><use xlink:href="#x" transform="matrix(1,0,0,1,1300.1999999999998,125) translate(5 18.6)"/><use xlink:href="#x" transform="matrix(1,0,0,1,1330.1999999999998,125) translate(5 18.6)"/><use xlink:href="#x" transform="matrix(1,0,0,1,1360.1999999999998,125) translate(5 18.6)"/><use xlink:href="#x" transform="matrix(1,0,0,1,1390.1999999999998,125) translate(5 18.6)"/><use xlink:href="#w" transform="matrix(1,0,0,1,1420.1999999999998,125) translate(5 18.6)"/><use xlink:href="#w" transform="matrix(1,0,0,1,1450.1999999999998,125) translate(5 18.6)"/><use xlink:href="#w" transform="matrix(1,0,0,1,1480.1999999999998,125) translate(5 18.6)"/><use xlink:href="#w" transform="matrix(1,0,0,1,1510.1999999999998,125) translate(5 18.6)"/><use xlink:href="#w" transform="matrix(1,0,0,1,1540.1999999999998,125) translate(5 18.6)"/><use xlink:href="#w" transform="matrix(1,0,0,1,1570.1999999999998,125) translate(5 18.6)"/><use xlink:href="#w" transform="matrix(1,0,0,1,1600.1999999999998,125) translate(5 18.6)"/><use xlink:href="#w" transform="matrix(1,0,0,1,1630.1999999999998,125) translate(5 18.6)"/><g fill="none"><path d="M224 105.33V20h246.67v85.33z"/><path d="M470.67 105.33c0-5.52-4.48-10-10-10H357.33c-5.52 0-10-4.47-10-10 0 5.53-4.47 10-10 10H234c-5.52 0-10 4.48-10 10" stroke="#000" stroke-width="2"/></g><path d="M500 32.67h240v60H500z" fill="none"/><use xlink:href="#b" transform="matrix(1,0,0,1,500,32.66666666666669) translate(40.375 34.044444444444444)"/><use xlink:href="#c" transform="matrix(1,0,0,1,500,32.66666666666669) translate(98.6824074074074 34.044444444444444)"/><use xlink:href="#y" transform="matrix(1,0,0,1,500,32.66666666666669) translate(122.21882716049382 34.044444444444444)"/><use xlink:href="#e" transform="matrix(1,0,0,1,500,32.66666666666669) translate(152.55216049382716 34.044444444444444)"/><g fill="none"><path d="M495.33 105.33V20h240v85.33z"/><path d="M735.33 105.33c0-5.52-4.47-10-10-10h-100c-5.52 0-10-4.47-10-10 0 5.53-4.47 10-10 10h-100c-5.52 0-10 4.48-10 10" stroke="#000" stroke-width="2"/></g><path d="M760 32.67h240v60H760z" fill="none"/><g><use xlink:href="#b" transform="matrix(1,0,0,1,760,32.66666666666669) translate(40.375 34.044444444444444)"/><use xlink:href="#c" transform="matrix(1,0,0,1,760,32.66666666666669) translate(98.6824074074074 34.044444444444444)"/><use xlink:href="#z" transform="matrix(1,0,0,1,760,32.66666666666669) translate(122.21882716049382 34.044444444444444)"/><use xlink:href="#e" transform="matrix(1,0,0,1,760,32.66666666666669) translate(152.55216049382716 34.044444444444444)"/></g><g fill="none"><path d="M765.33 105.33V20H1012v85.33z"/><path d="M1012 105.33c0-5.52-4.48-10-10-10H898.67c-5.53 0-10-4.47-10-10 0 5.53-4.48 10-10 10H775.33c-5.52 0-10 4.48-10 10" stroke="#000" stroke-width="2"/></g><path d="M1040 32.67h240v60h-240z" fill="none"/><g><use xlink:href="#b" transform="matrix(1,0,0,1,1040,32.66666666666669) translate(40.375 34.044444444444444)"/><use xlink:href="#c" transform="matrix(1,0,0,1,1040,32.66666666666669) translate(98.6824074074074 34.044444444444444)"/><use xlink:href="#A" transform="matrix(1,0,0,1,1040,32.66666666666669) translate(122.21882716049382 34.044444444444444)"/><use xlink:href="#e" transform="matrix(1,0,0,1,1040,32.66666666666669) translate(152.55216049382716 34.044444444444444)"/></g><g fill="none"><path d="M1045.33 105.33V20H1292v85.33z"/><path d="M1292 105.33c0-5.52-4.48-10-10-10h-103.33c-5.53 0-10-4.47-10-10 0 5.53-4.48 10-10 10h-103.34c-5.52 0-10 4.48-10 10" stroke="#000" stroke-width="2"/></g><path d="M1360 32.67h240v60h-240z" fill="none"/><g><use xlink:href="#B" transform="matrix(1,0,0,1,1360,32.66666666666669) translate(49.418827160493834 34.044444444444444)"/><use xlink:href="#C" transform="matrix(1,0,0,1,1360,32.66666666666669) translate(113.28734567901235 34.044444444444444)"/><use xlink:href="#D" transform="matrix(1,0,0,1,1360,32.66666666666669) translate(143.50833333333333 34.044444444444444)"/></g><g fill="none"><path d="M1317.33 106.67V20h320v86.67z"/><path d="M1637.33 106.67c0-5.53-4.47-10-10-10h-140c-5.52 0-10-4.48-10-10 0 5.52-4.47 10-10 10h-140c-5.52 0-10 4.47-10 10" stroke="#000" stroke-width="2"/></g><defs><path d="M67-125c0 53 21 87 73 88 37 1 54-22 65-47l45 17C233-25 199 4 140 4 58 4 20-42 15-125 8-235 124-281 211-232c18 10 29 29 36 50l-46 12c-8-25-30-41-62-41-52 0-71 34-72 86" id="E"/><path d="M135-150c-39-12-60 13-60 57V0H25l-1-190h47c2 13-1 29 3 40 6-28 27-53 61-41v41" id="F"/><path d="M128-127c34 4 56 21 59 58 7 91-148 94-172 28-4-9-6-17-7-26l51-5c1 24 16 35 40 36 23 0 39-12 38-36-1-31-31-36-65-34v-40c32 2 59-3 59-33 0-20-13-33-34-33s-33 13-35 32l-50-3c6-44 37-68 86-68 50 0 83 20 83 66 0 35-22 52-53 58" id="G"/><g id="a"><use transform="matrix(0.05617283950617283,0,0,0.05617283950617283,0,0)" xlink:href="#E"/><use transform="matrix(0.05617283950617283,0,0,0.05617283950617283,14.548765432098762,0)" xlink:href="#F"/><use transform="matrix(0.05617283950617283,0,0,0.05617283950617283,22.412962962962958,0)" xlink:href="#G"/></g><path d="M24 0v-248h52V0H24" id="H"/><path d="M135-194c87-1 58 113 63 194h-50c-7-57 23-157-34-157-59 0-34 97-39 157H25l-1-190h47c2 12-1 28 3 38 12-26 28-41 61-42" id="I"/><path d="M88-194c31-1 46 15 58 34l-1-101h50l1 261h-48c-2-10 0-23-3-31C134-8 116 4 84 4 32 4 16-41 15-95c0-56 19-97 73-99zm17 164c33 0 40-30 41-66 1-37-9-64-41-64s-38 30-39 65c0 43 13 65 39 65" id="J"/><path d="M185-48c-13 30-37 53-82 52C43 2 14-33 14-96s30-98 90-98c62 0 83 45 84 108H66c0 31 8 55 39 56 18 0 30-7 34-22zm-45-69c5-46-57-63-70-21-2 6-4 13-4 21h74" id="K"/><path d="M144 0l-44-69L55 0H2l70-98-66-92h53l41 62 40-62h54l-67 91 71 99h-54" id="L"/><g id="b"><use transform="matrix(0.056172839506172835,0,0,0.056172839506172835,0,0)" xlink:href="#H"/><use transform="matrix(0.056172839506172835,0,0,0.056172839506172835,5.617283950617283,0)" xlink:href="#I"/><use transform="matrix(0.056172839506172835,0,0,0.056172839506172835,17.919135802469135,0)" xlink:href="#J"/><use transform="matrix(0.056172839506172835,0,0,0.056172839506172835,30.220987654320986,0)" xlink:href="#K"/><use transform="matrix(0.056172839506172835,0,0,0.056172839506172835,41.45555555555555,0)" xlink:href="#L"/></g><path d="M25-224v-37h50v37H25zM25 0v-190h50V0H25" id="M"/><g id="c"><use transform="matrix(0.056172839506172835,0,0,0.056172839506172835,0,0)" xlink:href="#M"/><use transform="matrix(0.056172839506172835,0,0,0.056172839506172835,5.617283950617283,0)" xlink:href="#I"/></g><path d="M24-248c93 1 206-16 204 79-1 75-69 88-152 82V0H24v-248zm52 121c47 0 100 7 100-41 0-47-54-39-100-39v80" id="N"/><path d="M165-50V0h-47v-50H5v-38l105-160h55v161h33v37h-33zm-47-37l2-116L46-87h72" id="O"/><g id="d"><use transform="matrix(0.056172839506172835,0,0,0.056172839506172835,0,0)" xlink:href="#N"/><use transform="matrix(0.056172839506172835,0,0,0.056172839506172835,13.481481481481481,0)" xlink:href="#O"/></g><path d="M115-3C79 11 28 4 28-45v-112H4v-33h27l15-45h31v45h36v33H77v99c-1 23 16 31 38 25v30" id="P"/><path d="M133-34C117-15 103 5 69 4 32 3 11-16 11-54c-1-60 55-63 116-61 1-26-3-47-28-47-18 1-26 9-28 27l-52-2c7-38 36-58 82-57s74 22 75 68l1 82c-1 14 12 18 25 15v27c-30 8-71 5-69-32zm-48 3c29 0 43-24 42-57-32 0-66-3-65 30 0 17 8 27 23 27" id="Q"/><path d="M135-194c52 0 70 43 70 98 0 56-19 99-73 100-30 1-46-15-58-35L72 0H24l1-261h50v104c11-23 29-37 60-37zM114-30c31 0 40-27 40-66 0-37-7-63-39-63s-41 28-41 65c0 36 8 64 40 64" id="R"/><path d="M25 0v-261h50V0H25" id="S"/><g id="e"><use transform="matrix(0.056172839506172835,0,0,0.056172839506172835,0,0)" xlink:href="#P"/><use transform="matrix(0.056172839506172835,0,0,0.056172839506172835,6.684567901234567,0)" xlink:href="#Q"/><use transform="matrix(0.056172839506172835,0,0,0.056172839506172835,17.919135802469135,0)" xlink:href="#R"/><use transform="matrix(0.056172839506172835,0,0,0.056172839506172835,30.220987654320986,0)" xlink:href="#S"/><use transform="matrix(0.056172839506172835,0,0,0.056172839506172835,35.83827160493827,0)" xlink:href="#K"/></g><path d="M101-251c68 0 85 55 85 127S166 4 100 4C33 4 14-52 14-124c0-73 17-127 87-127zm-1 229c47 0 54-49 54-102s-4-102-53-102c-51 0-55 48-55 102 0 53 5 102 54 102" id="T"/><path d="M141 0L90-78 38 0H4l68-98-65-92h35l48 74 47-74h35l-64 92 68 98h-35" id="U"/><path d="M54-142c48-35 137-8 131 61C196 18 31 33 14-55l32-4c7 23 22 37 52 37 35-1 51-22 54-58 4-55-73-65-99-34H22l8-134h141v27H59" id="V"/><path d="M126-127c33 6 58 20 58 59 0 88-139 92-164 29-3-8-5-16-6-25l32-3c6 27 21 44 54 44 32 0 52-15 52-46 0-38-36-46-79-43v-28c39 1 72-4 72-42 0-27-17-43-46-43-28 0-47 15-49 41l-32-3c6-42 35-63 81-64 48-1 79 21 79 65 0 36-21 52-52 59" id="W"/><g id="f"><use transform="matrix(0.05,0,0,0.05,0,0)" xlink:href="#T"/><use transform="matrix(0.05,0,0,0.05,10,0)" xlink:href="#U"/><use transform="matrix(0.05,0,0,0.05,19,0)" xlink:href="#V"/><use transform="matrix(0.05,0,0,0.05,29,0)" xlink:href="#T"/><use transform="matrix(0.05,0,0,0.05,39,0)" xlink:href="#T"/><use transform="matrix(0.05,0,0,0.05,49,0)" xlink:href="#W"/></g><g id="g"><use transform="matrix(0.05,0,0,0.05,0,0)" xlink:href="#T"/><use transform="matrix(0.05,0,0,0.05,10,0)" xlink:href="#U"/><use transform="matrix(0.05,0,0,0.05,19,0)" xlink:href="#T"/></g><path d="M33 0v-38h34V0H33" id="X"/><g id="h"><use transform="matrix(0.05,0,0,0.05,0,0)" xlink:href="#X"/><use transform="matrix(0.05,0,0,0.05,5,0)" xlink:href="#X"/><use transform="matrix(0.05,0,0,0.05,10,0)" xlink:href="#X"/></g><g id="i"><use transform="matrix(0.05617283950617283,0,0,0.05617283950617283,0,0)" xlink:href="#N"/><use transform="matrix(0.05617283950617283,0,0,0.05617283950617283,13.48148148148148,0)" xlink:href="#O"/></g><g id="j"><use transform="matrix(0.05617283950617283,0,0,0.05617283950617283,0,0)" xlink:href="#P"/><use transform="matrix(0.05617283950617283,0,0,0.05617283950617283,6.6845679012345665,0)" xlink:href="#Q"/><use transform="matrix(0.05617283950617283,0,0,0.05617283950617283,17.919135802469132,0)" xlink:href="#R"/><use transform="matrix(0.05617283950617283,0,0,0.05617283950617283,30.220987654320982,0)" xlink:href="#S"/><use transform="matrix(0.05617283950617283,0,0,0.05617283950617283,35.838271604938264,0)" xlink:href="#K"/></g><path d="M110-160c48 1 74 30 74 79 0 53-28 85-80 85-65 0-83-55-86-122-5-90 50-162 133-122 14 7 22 21 27 39l-31 6c-5-40-67-38-82-6-9 19-15 44-15 74 11-20 30-34 60-33zm-7 138c34 0 49-23 49-58s-16-56-50-56c-29 0-50 16-49 49 1 36 15 65 50 65" id="Y"/><g id="k"><use transform="matrix(0.05,0,0,0.05,0,0)" xlink:href="#T"/><use transform="matrix(0.05,0,0,0.05,10,0)" xlink:href="#U"/><use transform="matrix(0.05,0,0,0.05,19,0)" xlink:href="#Y"/><use transform="matrix(0.05,0,0,0.05,29,0)" xlink:href="#T"/><use transform="matrix(0.05,0,0,0.05,39,0)" xlink:href="#T"/><use transform="matrix(0.05,0,0,0.05,49,0)" xlink:href="#W"/></g><g id="l"><use transform="matrix(0.05617283950617283,0,0,0.05617283950617283,0,0)" xlink:href="#N"/><use transform="matrix(0.05617283950617283,0,0,0.05617283950617283,13.48148148148148,0)" xlink:href="#G"/></g><path d="M64 0c3-98 48-159 88-221H18v-27h164v26C143-157 98-101 97 0H64" id="Z"/><g id="m"><use transform="matrix(0.05,0,0,0.05,0,0)" xlink:href="#T"/><use transform="matrix(0.05,0,0,0.05,10,0)" xlink:href="#U"/><use transform="matrix(0.05,0,0,0.05,19,0)" xlink:href="#Z"/><use transform="matrix(0.05,0,0,0.05,29,0)" xlink:href="#T"/><use transform="matrix(0.05,0,0,0.05,39,0)" xlink:href="#T"/><use transform="matrix(0.05,0,0,0.05,49,0)" xlink:href="#W"/></g><path d="M182-182c0 78-84 86-111 141h115V0H12c-6-101 99-100 120-180 1-22-12-31-33-32-23 0-32 14-35 34l-49-3c5-45 32-70 84-70 51 0 83 22 83 69" id="aa"/><g id="n"><use transform="matrix(0.05617283950617283,0,0,0.05617283950617283,0,0)" xlink:href="#N"/><use transform="matrix(0.05617283950617283,0,0,0.05617283950617283,13.48148148148148,0)" xlink:href="#aa"/></g><g id="o"><use transform="matrix(0.05,0,0,0.05,0,0)" xlink:href="#T"/><use transform="matrix(0.05,0,0,0.05,10,0)" xlink:href="#U"/><use transform="matrix(0.05,0,0,0.05,19,0)" xlink:href="#W"/></g><path d="M27 0v-27h64v-190l-56 39v-29l58-41h29v221h61V0H27" id="ab"/><g id="p"><use transform="matrix(0.05,0,0,0.05,0,0)" xlink:href="#T"/><use transform="matrix(0.05,0,0,0.05,10,0)" xlink:href="#U"/><use transform="matrix(0.05,0,0,0.05,19,0)" xlink:href="#ab"/><use transform="matrix(0.05,0,0,0.05,29,0)" xlink:href="#T"/><use transform="matrix(0.05,0,0,0.05,39,0)" xlink:href="#T"/><use transform="matrix(0.05,0,0,0.05,49,0)" xlink:href="#W"/></g><path d="M101-251c82-7 93 87 43 132L82-64C71-53 59-42 53-27h129V0H18c2-99 128-94 128-182 0-28-16-43-45-43s-46 15-49 41l-32-3c6-41 34-60 81-64" id="ac"/><g id="q"><use transform="matrix(0.05,0,0,0.05,0,0)" xlink:href="#T"/><use transform="matrix(0.05,0,0,0.05,10,0)" xlink:href="#U"/><use transform="matrix(0.05,0,0,0.05,19,0)" xlink:href="#ac"/><use transform="matrix(0.05,0,0,0.05,29,0)" xlink:href="#T"/><use transform="matrix(0.05,0,0,0.05,39,0)" xlink:href="#T"/><use transform="matrix(0.05,0,0,0.05,49,0)" xlink:href="#W"/></g><g id="r"><use transform="matrix(0.05,0,0,0.05,0,0)" xlink:href="#T"/><use transform="matrix(0.05,0,0,0.05,10,0)" xlink:href="#U"/><use transform="matrix(0.05,0,0,0.05,19,0)" xlink:href="#W"/><use transform="matrix(0.05,0,0,0.05,29,0)" xlink:href="#T"/><use transform="matrix(0.05,0,0,0.05,39,0)" xlink:href="#T"/><use transform="matrix(0.05,0,0,0.05,49,0)" xlink:href="#W"/></g><path d="M85-194c31 0 48 13 60 33l-1-100h32l1 261h-30c-2-10 0-23-3-31C134-8 116 4 85 4 32 4 16-35 15-94c0-66 23-100 70-100zm9 24c-40 0-46 34-46 75 0 40 6 74 45 74 42 0 51-32 51-76 0-42-9-74-50-73" id="ad"/><g id="s"><use transform="matrix(0.05,0,0,0.05,0,0)" xlink:href="#T"/><use transform="matrix(0.05,0,0,0.05,10,0)" xlink:href="#U"/><use transform="matrix(0.05,0,0,0.05,19,0)" xlink:href="#V"/><use transform="matrix(0.05,0,0,0.05,29,0)" xlink:href="#V"/><use transform="matrix(0.05,0,0,0.05,39,0)" xlink:href="#V"/><use transform="matrix(0.05,0,0,0.05,49,0)" xlink:href="#V"/><use transform="matrix(0.05,0,0,0.05,59,0)" xlink:href="#V"/><use transform="matrix(0.05,0,0,0.05,69,0)" xlink:href="#V"/><use transform="matrix(0.05,0,0,0.05,79,0)" xlink:href="#V"/><use transform="matrix(0.05,0,0,0.05,89,0)" xlink:href="#V"/><use transform="matrix(0.05,0,0,0.05,99,0)" xlink:href="#V"/><use transform="matrix(0.05,0,0,0.05,109,0)" xlink:href="#T"/><use transform="matrix(0.05,0,0,0.05,119,0)" xlink:href="#ad"/><use transform="matrix(0.05,0,0,0.05,129,0)" xlink:href="#T"/></g><path d="M101-234c-31-9-42 10-38 44h38v23H63V0H32v-167H5v-23h27c-7-52 17-82 69-68v24" id="ae"/><path d="M141-36C126-15 110 5 73 4 37 3 15-17 15-53c-1-64 63-63 125-63 3-35-9-54-41-54-24 1-41 7-42 31l-33-3c5-37 33-52 76-52 45 0 72 20 72 64v82c-1 20 7 32 28 27v20c-31 9-61-2-59-35zM48-53c0 20 12 33 32 33 41-3 63-29 60-74-43 2-92-5-92 41" id="af"/><path d="M115-194c53 0 69 39 70 98 0 66-23 100-70 100C84 3 66-7 56-30L54 0H23l1-261h32v101c10-23 28-34 59-34zm-8 174c40 0 45-34 45-75 0-40-5-75-45-74-42 0-51 32-51 76 0 43 10 73 51 73" id="ag"/><path d="M99-251c64 0 84 50 84 122C183-37 130 33 47-8c-14-7-20-23-25-40l30-5c6 39 69 39 84 7 9-19 16-44 16-74-10 22-31 35-62 35-49 0-73-33-73-83 0-54 28-83 82-83zm-1 141c31-1 51-18 51-49 0-36-14-67-51-67-34 0-49 23-49 58 0 34 15 58 49 58" id="ah"/><g id="t"><use transform="matrix(0.05,0,0,0.05,0,0)" xlink:href="#T"/><use transform="matrix(0.05,0,0,0.05,10,0)" xlink:href="#U"/><use transform="matrix(0.05,0,0,0.05,19,0)" xlink:href="#Z"/><use transform="matrix(0.05,0,0,0.05,29,0)" xlink:href="#ae"/><use transform="matrix(0.05,0,0,0.05,33.65,0)" xlink:href="#ae"/><use transform="matrix(0.05,0,0,0.05,38.3,0)" xlink:href="#ae"/><use transform="matrix(0.05,0,0,0.05,42.949999999999996,0)" xlink:href="#ae"/><use transform="matrix(0.05,0,0,0.05,47.949999999999996,0)" xlink:href="#Z"/><use transform="matrix(0.05,0,0,0.05,57.94999999999999,0)" xlink:href="#af"/><use transform="matrix(0.05,0,0,0.05,67.94999999999999,0)" xlink:href="#T"/><use transform="matrix(0.05,0,0,0.05,77.94999999999999,0)" xlink:href="#V"/><use transform="matrix(0.05,0,0,0.05,87.94999999999999,0)" xlink:href="#ag"/><use transform="matrix(0.05,0,0,0.05,97.94999999999999,0)" xlink:href="#ah"/><use transform="matrix(0.05,0,0,0.05,107.94999999999999,0)" xlink:href="#Z"/></g><path d="M23 0v-37h61v-169l-59 37v-38l62-41h46v211h57V0H23" id="ai"/><g id="u"><use transform="matrix(0.05617283950617283,0,0,0.05617283950617283,0,0)" xlink:href="#N"/><use transform="matrix(0.05617283950617283,0,0,0.05617283950617283,13.48148148148148,0)" xlink:href="#ai"/></g><path d="M155-56V0h-30v-56H8v-25l114-167h33v167h35v25h-35zm-30-156c-27 46-58 90-88 131h88v-131" id="aj"/><g id="v"><use transform="matrix(0.05,0,0,0.05,0,0)" xlink:href="#T"/><use transform="matrix(0.05,0,0,0.05,10,0)" xlink:href="#U"/><use transform="matrix(0.05,0,0,0.05,19,0)" xlink:href="#aj"/><use transform="matrix(0.05,0,0,0.05,29,0)" xlink:href="#T"/><use transform="matrix(0.05,0,0,0.05,39,0)" xlink:href="#T"/><use transform="matrix(0.05,0,0,0.05,49,0)" xlink:href="#T"/></g><use transform="matrix(0.05,0,0,0.05,0,0)" xlink:href="#T" id="w"/><use transform="matrix(0.05,0,0,0.05,0,0)" xlink:href="#ab" id="x"/><g id="y"><use transform="matrix(0.056172839506172835,0,0,0.056172839506172835,0,0)" xlink:href="#N"/><use transform="matrix(0.056172839506172835,0,0,0.056172839506172835,13.481481481481481,0)" xlink:href="#G"/></g><g id="z"><use transform="matrix(0.056172839506172835,0,0,0.056172839506172835,0,0)" xlink:href="#N"/><use transform="matrix(0.056172839506172835,0,0,0.056172839506172835,13.481481481481481,0)" xlink:href="#aa"/></g><g id="A"><use transform="matrix(0.056172839506172835,0,0,0.056172839506172835,0,0)" xlink:href="#N"/><use transform="matrix(0.056172839506172835,0,0,0.056172839506172835,13.481481481481481,0)" xlink:href="#ai"/></g><path d="M140-251c80 0 125 45 125 126S219 4 139 4C58 4 15-44 15-125s44-126 125-126zm-1 214c52 0 73-35 73-88 0-50-21-86-72-86-52 0-73 35-73 86s22 88 72 88" id="ak"/><path d="M121-226c-27-7-43 5-38 36h38v33H83V0H34v-157H6v-33h28c-9-59 32-81 87-68v32" id="al"/><path d="M137-138c1-29-70-34-71-4 15 46 118 7 119 86 1 83-164 76-172 9l43-7c4 19 20 25 44 25 33 8 57-30 24-41C81-84 22-81 20-136c-2-80 154-74 161-7" id="am"/><g id="B"><use transform="matrix(0.056172839506172835,0,0,0.056172839506172835,0,0)" xlink:href="#ak"/><use transform="matrix(0.056172839506172835,0,0,0.056172839506172835,15.728395061728394,0)" xlink:href="#al"/><use transform="matrix(0.056172839506172835,0,0,0.056172839506172835,22.41296296296296,0)" xlink:href="#al"/><use transform="matrix(0.056172839506172835,0,0,0.056172839506172835,29.097530864197527,0)" xlink:href="#am"/><use transform="matrix(0.056172839506172835,0,0,0.056172839506172835,40.33209876543209,0)" xlink:href="#K"/><use transform="matrix(0.056172839506172835,0,0,0.056172839506172835,51.56666666666666,0)" xlink:href="#P"/></g><path d="M110-194c64 0 96 36 96 99 0 64-35 99-97 99-61 0-95-36-95-99 0-62 34-99 96-99zm-1 164c35 0 45-28 45-65 0-40-10-65-43-65-34 0-45 26-45 65 0 36 10 65 43 65" id="an"/><g id="C"><use transform="matrix(0.056172839506172835,0,0,0.056172839506172835,0,0)" xlink:href="#an"/><use transform="matrix(0.056172839506172835,0,0,0.056172839506172835,12.30185185185185,0)" xlink:href="#I"/></g><path d="M135-194c53 0 70 44 70 98 0 56-19 98-73 100-31 1-45-17-59-34 3 33 2 69 2 105H25l-1-265h48c2 10 0 23 3 31 11-24 29-35 60-35zM114-30c33 0 39-31 40-66 0-38-9-64-40-64-56 0-55 130 0 130" id="ao"/><path d="M195-6C206 82 75 100 31 46c-4-6-6-13-8-21l49-6c3 16 16 24 34 25 40 0 42-37 40-79-11 22-30 35-61 35-53 0-70-43-70-97 0-56 18-96 73-97 30 0 46 14 59 34l2-30h47zm-90-29c32 0 41-27 41-63 0-35-9-62-40-62-32 0-39 29-40 63 0 36 9 62 39 62" id="ap"/><g id="D"><use transform="matrix(0.056172839506172835,0,0,0.056172839506172835,0,0)" xlink:href="#ao"/><use transform="matrix(0.056172839506172835,0,0,0.056172839506172835,12.30185185185185,0)" xlink:href="#Q"/><use transform="matrix(0.056172839506172835,0,0,0.056172839506172835,23.536419753086417,0)" xlink:href="#ap"/><use transform="matrix(0.056172839506172835,0,0,0.056172839506172835,35.83827160493827,0)" xlink:href="#K"/></g></defs></g></svg>